<?xml version="1.0" encoding="UTF-8"?>
<svg id="Layer_1" xmlns="http://www.w3.org/2000/svg" version="1.1" viewBox="0 0 320 320">
  <!-- Generator: Adobe Illustrator 30.0.0, SVG Export Plug-In . SVG Version: 2.1.1 Build 123)  -->
  <defs>
    <style>
      .st0 {
        fill: #fff;
      }

      .st1 {
        fill: #004f9f;
      }
    </style>
  </defs>
  <g>
    <path class="st0" d="M148.43,10.25c8.78-.21,17.68-.75,26.39.65l5.27,22.13c9.18,1.58,18.17,4.09,26.96,7.16,5.65-5.28,10.87-11,16.67-16.11,8.23,3.27,16,7.78,23.26,12.86l-6.3,21.8c7.34,5.83,14.18,12.28,20.31,19.37,7.09-2.4,14.01-5.35,21.04-7.96,5.38,6.95,10.09,14.41,14.29,22.12l-15.77,16.24c3.26,8.12,6.67,16.22,8.44,24.83l22.72,3.06c1.5,8.54,2.32,17.19,2.46,25.87l-21.54,7.14c-.9,8.79-1.76,17.64-4.01,26.2,6.11,4.82,12.82,8.84,18.82,13.81-2.51,8.65-6.15,16.93-10.32,24.9l-22.22-4.8c-3.38,5.65-6.96,11.2-10.95,16.45-7.42-5.52-14.56-11.39-21.55-17.44,16.26-20.82,24.63-47.82,22.06-74.18-1.79-21.12-10.41-41.57-24.08-57.76-15.18-18.09-36.62-30.91-59.85-35.35-13.54-2.56-27.61-2.78-41.11.14-20.55,4.14-39.65,14.85-54.2,29.92-16.59,17.01-27.11,39.88-29,63.59-2.59,26.74,7.19,53.6,23.32,74.68-.81.84-1.65,1.66-2.57,2.39-6.33,4.91-12.38,10.15-18.67,15.1-4.58-5.11-8.25-10.94-11.94-16.7-7.64.71-15.28,2.78-22.97,3.75-.89-.16-1.06-1.27-1.54-1.9-3.7-7.47-6.68-15.27-9.14-23.22,6.31-4.18,12.96-7.84,19.27-12.01,1.02-.53.18-1.78.13-2.61-2.07-8.4-3.42-16.99-3.5-25.66-7.44-2.38-14.98-4.47-22.49-6.63-.26-8.87.55-17.81,2.64-26.44,7.81-.88,15.61-1.87,23.4-2.94,2.18-8.75,4.99-17.39,8.93-25.5-5.23-5.83-10.99-11.14-16.3-16.89,4.33-8.23,9.47-16.05,15.61-23.05l20.6,9.7c6.43-6.87,13.41-13.24,20.79-19.08-2.14-7.2-4.68-14.28-6.97-21.43.38-.96,1.52-1.31,2.29-1.91,6.88-4.2,13.81-8.44,21.25-11.6.95-.67,1.61.61,2.26,1.09l14.07,15.75c8.84-3.28,18.06-5.36,27.37-6.77,2.26-7.54,4.16-15.19,6.39-22.74M164.23,41.32l-.38,9.86,2.22-.05c.06-3.3.32-6.59.29-9.89l-2.13.09M150.56,41.65l.38,8.29c-.25,1.41,1.08,1.6,2.16,1.53-.11-2.3-.2-4.59-.44-6.87,1.37,1.9,2.51,3.95,3.84,5.88.51.84,1.68.44,2.47.67.03-3.29-.28-6.56-.37-9.85h-2.01c.05,2.08.18,4.14.24,6.21-1.45-1.93-2.72-3.99-3.98-6.05l-2.29.2M168.43,41.36c-.26,3.24-.77,6.47-.83,9.72l1.9.46.64-6.54c1.23,2.14,2.05,4.48,3.21,6.66.72.19,1.46.25,2.2.2.24-3.25.61-6.5.85-9.76l-2.04-.04c-.15,2.16-.36,4.31-.75,6.44-.91-2.3-1.7-4.69-3.06-6.77l-2.12-.36M143.11,42.58l-2.06,10.15,2.11-.36c.19-.71.45-1.38.79-2.02,1.08-.22,2.19-.29,3.29-.4l.84,1.82,2.36-.32c-1.7-3.06-3.2-6.22-4.76-9.35l-2.57.48M136.44,43.63c.55,3.17,1.25,6.31,1.73,9.5l2.25-.11-1.85-9.76-2.14.37M177.85,45.78c.11,2.5,3.28,2.79,4.92,4.04.49,2.55-3.61,1.43-3.84-.48l-2.06-.34c-.14,3.44,4.04,5.19,6.8,3.75,1.56-.79,2.11-3.41.58-4.47-1.43-.98-3.07-1.64-4.54-2.54l1.6-1.19c1.8.32,2.39,2.65,4.47,2.37-.37-1.02-.36-2.3-1.25-3.07-2.02-1.89-6.62-1.41-6.68,1.93M186.88,45.98l2.65.57c-.55,2.58-1.25,5.13-1.95,7.67l2.08.75c.75-2.57,1.41-5.17,1.99-7.78l2.99.66.3-1.87-7.83-1.93-.24,1.92M126.69,45.94l2.47,9.57c2.32-.74,5.4-.69,6.75-3.06.84-2.6.15-6.3-2.55-7.54-2.28-.4-4.48.55-6.66,1.03M196.04,46.45l-2.94,9.37,2.1.67,2.94-9.45-2.1-.6M122.46,47.25l2.03,6c-1.9-1.51-3.73-3.09-5.5-4.75l-2.23.92c1.19,3.05,2.21,6.15,3.28,9.24l1.95-.8-2.13-6.12c1.94,1.56,3.81,3.21,5.65,4.87l2.12-.63c-.98-3.11-2.16-6.16-3.11-9.28l-2.07.55M199.22,47.36l-.61,1.75,2.7,1.11c-.85,2.49-2.05,4.88-2.57,7.47l1.64.67c1.47-2.24,1.93-5,3.04-7.44l2.71,1.02.64-1.83-7.55-2.76M97.56,51.94c-.69,1.66,1.11,2.69,2.07,3.7-6.71,3.74-13.04,8.23-18.72,13.39-.04,1.84,1.87.72,2.52-.13l1.48,1.83-.39,2.06h3.87s-.63-2.04-.63-2.04l1.79-1.48c1.08,1.39,2.09,2.86,3.35,4.1.87-.62,1.7-1.38,2.87-1.23-.37,2.12-2.33,2.79-4.24,2.86l.05,1.12c2.54.82,5.98-1.22,5.7-4.07-.58-1.82-2.67-1.85-4.18-1.33l-4.71-5.99,5.52-3.98,2.17,3.46-3.06.18,1.83-1.54c-1.08-1.47-2.62-.05-3.31,1.05-1.09,1.57.13,4.12,2.05,4.19,1.66.35,2.8-1.04,3.93-1.99l1.02,1.89,1.64-1.15c-1.59-2.34-3.08-4.74-4.68-7.07,1.74-1.06,3.46-2.22,5.35-3.01.79,2.03-3.5,1.64-2.81,3.91,1.42,2.06,4.3,1.66,6.03.22l-.27,2.28-3.21.33.02,1.76c2.22-.16,4.45-.18,6.66.2l.5-1.6-2.45.05c.45-1.63.96-4-.96-4.88-1.48.11-2.59,1.37-4.03,1.75.13-1.66,1.95-2.04,3.1-2.85l-1.21-2.06,1.57-.9-.68-1.43-2.14,1.33c-.69-.55-1.38-1.1-1.96-1.77.31-1,1.13-1.75,1.64-2.65-1.03.36-2.59.29-3.07,1.5M112.96,50.64c1.02,3.21,2.49,6.25,3.73,9.38l2.05-.84c-1.25-2.92-2.32-5.92-3.69-8.78l-2.08.24M208.07,50.68c-.94,2.24-2.17,4.36-2.91,6.68-1.29,3.69,5.15,6.65,7.07,3.27,1.22-2.08,2.01-4.37,3.15-6.49-.69-.17-1.5-1.3-2.14-.67-1.19,2.12-2.02,4.42-3.18,6.56-1.09-.14-2.12-.59-2.96-1.3.76-2.45,1.87-4.77,3.02-7.05l-2.05-1M215.67,56.35l2.56,1.43c-1.23,2.32-2.66,4.52-3.76,6.91.59.4,1.19.8,1.8,1.18l3.91-6.97,2.74,1.39.6-1.72c-2.19-1.42-4.57-2.51-6.79-3.87l-1.06,1.66M219.55,67.45c1.69,1.54,3.68,2.74,5.67,3.84.79.72,2.16-1.31.89-1.58-1.25-.92-2.57-1.72-3.85-2.58.44-.59.86-1.19,1.36-1.74,1.4.71,2.67,1.64,4.01,2.47l.92-1.65-3.88-2.41.95-1.63c1.42.9,2.84,1.81,4.24,2.76l1.14-1.53-6.12-4.08c-1.77,2.71-3.67,5.34-5.32,8.13M83.85,62.48l1.23,1.49,1.73-1.27-1.22-1.66-1.74,1.44M234,68.89c-1.77,1.1-3.33,3.05-3.12,5.25-.02,3.23,4.03,5.59,6.82,3.95,1.83-1.15,3.36-3.07,3.31-5.32-.13-3.25-4.18-5.67-7.02-3.87M237.2,81.05l1.47,1.64,3.05-2.92,2.92,2.93,1.27-1.48c-.88-.98-2.29-1.72-2.69-3.01l1.02-1.31,3.35,3.36,1.63-1.2-5.02-5.05c-2.52,2.17-4.61,4.76-7.01,7.05M70.27,78.41c-3.26,3.8-6.9,7.4-9.45,11.71.58,1.15,1.49.06,2.24-.28.85.71,1.77,1.35,2.53,2.17.82,1.68-.13,3.35-1.37,4.46-.2-1.36.11-3.02-1-4.06-.8-.9-2.11-.9-3.21-.73-1.38.45-1.71,1.95-2.19,3.13.9,1.81,2.76,1.87,4.26.64l-2.4-1.19c0-1.72,1.99-1.2,2.37.01.58.74-.05,1.62-.17,2.41l-2.26,1.41c.32.5.65,1,.99,1.49.9-1.64,2.74-1.24,4.2-1.77,1.7-.83,2.43-2.72,2.76-4.46l2.24,1.55.89-1.64c-2.31-1.62-4.53-3.37-6.77-5.08l1.35-1.52,6.7,5.4,1.03-1.57-6.62-5.42,5.07-5.73c.46.5.9,1.01,1.33,1.54-.86,1.61-2.8,2.65-3.2,4.46.71,1.31,2.64.46,3.86.65-.3-.81-.62-1.61-.96-2.41.54-.49,1.1-.95,1.68-1.39,1.31.92,2.35,2.14,3.48,3.27l1.22-1.58c-1.96-1.88-3.98-3.71-5.87-5.66l.59-1.58c-1.48-.9-2.35.96-3.29,1.77M252.21,82.3l-1.49,1.21,1.84,2.24-6.11,5.12,1.46,1.66c2.06-1.6,3.93-3.44,6.08-4.93.67.6,1.19,1.33,1.75,2.04l1.68-1.15c-1.78-2.03-3.48-4.14-5.21-6.21M250.15,95.39l4.47,6.19,1.43-1.45c-1.04-1.32-2.03-2.66-3.03-4l1.81-1.46c.95,1.26,1.86,2.54,2.76,3.84l1.58-1.17c-.63-1.42-3.61-3.2-1.75-4.64,1.62.46,2.16,2.67,3.4,3.81l1.7-.82-4.26-6.06c-2.78,1.81-5.44,3.79-8.1,5.76M55.46,97.95c-2.95,4.84-5.67,9.85-7.75,15.13l1.12.93,1.74-3.91,2.65,1.22c-1.08.63-2.51,1.08-2.3,2.63,2.59-.3,5.21-.54,7.71-1.33l.07-1.78-3.8,1c-.61-1.66-2.12-2.59-3.37-3.7.34-.8.73-1.56,1.13-2.33.71.75,3.24,1.16,1.59,2.6l1.04,1.17.94-1.68c1.37.57,2.62,1.41,4.05,1.84l.97-1.39c-2.54-1.4-5.09-2.77-7.7-4.04.89-1.46,1.43-3.28,2.78-4.37.72.46,1.4.98,2.04,1.56-1.19.39-2.48.79-2.26,2.32,2.59-.13,5.21-.13,7.76-.65l.16-1.68-3.81.49c-.39-1.6-1.65-2.67-2.84-3.69l.06-2.33c-.84.48-1.54,1.16-1.99,2.01M256.37,104.4c.38,2.87,3.51,4.42,6.16,3.49l-1.13-2.03c-1.1.14-2.68-.09-2.84-1.44-.59-2.32,2.16-3.7,4.07-3.87,1.86.34,2.16,2.49,1.34,3.93l1.04,1.81c1.73-1.56,2.15-4.21.63-6.07-2.82-3.96-10.18-.49-9.26,4.18M48.05,103.52l1.82.97,1.04-1.8-1.72-1.11-1.14,1.94M260.78,109.93c-1.41.36-.23,1.64-.04,2.48l4.01-1.99,1.58,3.27-3.96,1.99,1.12,1.84c2.94-1.42,5.91-2.78,8.78-4.33l-1-1.94-3.24,1.56-1.57-3.12,3.25-1.75-.92-1.89c-2.69,1.25-5.34,2.58-8,3.89M263.94,118.93c.34.65.7,1.29,1.05,1.94,1.91-.87,3.87-1.65,5.85-2.33-1.5,1.96-3.06,3.87-4.67,5.75l.66,2.14c3.15-1.13,6.27-2.36,9.37-3.62l-.87-1.77c-2.03.58-3.95,1.46-5.91,2.22,1.4-2.03,3.21-3.77,4.47-5.89l-.73-2.06c-3.06,1.27-6.16,2.43-9.24,3.62M43.29,123.59c-2.82-.3-6.16,1.24-6.08,4.46.11,2.16,2.61,2.2,4.23,2.24-.93,2.98-1.7,6-2.3,9.06-2.78,2.06-6.74,4.76-5.58,8.79.34,1.87,2.55,1.85,4.02,1.83.54,3.37-3.05,4.41-5.17,6.08l.96,1.64c1.25-1.21,2.53-2.39,3.85-3.5-.22,4.74,0,9.5.2,14.24l-4.47,2.86.88,1.69c1.27-1.22,2.57-2.42,4.09-3.32-.77,1.54-1.97,2.79-2.96,4.18,1.13,2.1,2.02-.64,2.66-1.52.78,2.4.68,4.98,1.41,7.38l1,.32.44-1.53c1.9-.51,4.37-.78,4.63-3.22.82.91,1.68,1.79,2.59,2.62,1.36-2.27-1.92-3.31-3.07-4.81,1.27-.43,4.34.17,3.17-2.24-2.89.08-5.73.72-8.62.94l-.14-1.99c2.78-.31,5.56-.58,8.35-.79l.07-1.95c-2.91.32-5.82.7-8.75.68v-5.27s.82-.11.82-.11c.09,1.08-.08,2.24.35,3.28,1.02,1,2.23-.12,3.25-.47.96-.07,2.18.33,2.81-.66,1.36-1.95.32-4.37-.73-6.19l1.96.02-.09-1.91c-2.86.2-5.72.29-8.58.23l.25-2.41,8.59.44-.05-1.86c-2.81-.09-5.61-.32-8.41-.42v-2.48c2.85.26,5.68.75,8.54.77l.37-1.71-8.6-.9.37-2.78,2.43.36c-.15,3.07,3.6.47,3.03-1.27-1.69-.48-3.44-.7-5.17-.99l.45-2.3c2.85.53,5.67,1.19,8.52,1.69l.27-1.84c-2.82-.53-5.62-1.12-8.41-1.79.53-1.9,1.01-3.82,1.45-5.74,1.51.35,3.09.55,4.49,1.23.29.78.47,2.43-.8,2.36-1.66.17-1.52-1.72-1.78-2.79l-1.23.38c-1.02,2.27,1.16,4.85,3.55,4.02,1.72-.31,2.06-2.17,2.07-3.62l2.15.51.26-1.72c-1.74-.86-5.51-.53-4.82-3.47,1.66-.77,2.7,1.27,3.84,2.12,2.07-1.6-1-4.16-2.84-4.1-2.07-.2-2.76,2.09-2.78,3.75l-1.56-.53,1.46-5.57c2.81.85,5.55,1.89,8.34,2.8l.36-1.75c-2.41-1.08-4.97-1.77-7.45-2.68-.28-.67-.59-1.33-.95-1.95l-1.17,1.19M271.62,126.22c-2.86.67-4.39,4.09-2.98,6.68,2.02,4.8,10.75,2.37,9.9-2.84-.13-3.39-4.02-5.19-6.93-3.83M270.17,137.66l1.4,6.99,1.69-.46c-.01-1.56-.49-3.06-.82-4.56,2.5-.74,5.06-1.23,7.65-1.58l-.18-2.32-9.74,1.94M275.12,144.46c-3.48.82-4.18,5.71-1.79,8,2.57,2.12,7.19,1.37,8.67-1.7.55-1.75.42-3.97-.97-5.3-1.5-1.59-3.97-1.5-5.91-1M275.11,155.28c-2.45,1.14-3.07,4.71-1.32,6.71l-.77,2.07,5.58-.21-.21-4.16h-1.83l.2,2.28c-1.6-.39-2.7-2.05-1.83-3.62,1.46-2.1,5.52-1.95,6.41.65-.11,1.76-1.99,2.9-1.65,4.79,3.54-.13,4.43-4.91,2.51-7.28-1.64-2.1-4.8-2.24-7.08-1.22M273.06,167.43l-.09,2.1c1.29.13,2.59.18,3.86.46,1.99.96,3.79,2.29,5.8,3.23l.13-2.41c-1.31-.66-2.62-1.34-3.91-2.03l4.11-1.72-.04-2.56c-3.13,1.46-6.16,3.98-9.86,2.94M271.78,183.73c.57,2,3.26,2.37,4.75,1.15,1.17,1.01,3.15,1.69,4.2.13,1.04-1.93.9-4.27,1.41-6.37-3.19-.69-6.45-1.03-9.65-1.65-.47,2.2-1.06,4.47-.7,6.74M272.44,186.99c-2.55.87-3.7,4.18-2.58,6.56,1.87,3.88,9.15,3.94,9.84-.85,1.23-4.12-3.77-6.87-7.26-5.71M43.14,192.71l-1.5-1.4-.29,1.21c.7,3.42,1.81,6.76,2.86,10.09-1.33,1.09-2.91,2.3-3.06,4.17-.2,1.66.71,3.92,2.65,3.98,1.13-.15,1.95-1.03,2.88-1.61,2.8,6.27,5.71,12.54,9.52,18.27l1.25.49-.26-2.21,2.44-1.31.98,1.72c-1.24.76-2.34,1.72-3.23,2.87.34,1.54,1.73,3.83,3.53,2.4,1.62-1.06-.68-1.99-1.71-1.35.61-1.53,2.37-2.93,3.81-1.35,1.12-.75.86-2.49,1.02-3.68-1.13-.61-2.74.28-3.35-1.36l3.58-2.18-.96-1.69-7.3,4.49-1.04-1.75c2.4-1.41,4.9-2.64,7.22-4.18l-.59-1.77-7.59,4.3-2.36-4.55c.95-.36,1.92-.66,2.91-.9l-.71,2.87,1.4.72c1.44-2.4,2.71-4.9,3.76-7.49l-1.64-.68-1.5,3.85c-1.45-1.83-3.43-.92-5.16-.07-.94-2.35-2.05-4.63-2.91-7.01,2.9-.55,1.89,4.55,4.81,4.33,2.6.08,3.27-3.06,4.22-4.93l-1.39-.67c-.76,1.61-1.41,3.6-3.34,4.13l-1.58-3.6,5.26-2.14-.72-1.74-7.91,3.19-.89-2.18c2.63-1.06,5.4-1.75,7.98-2.92l-.33-1.75-8.23,2.88c-.32-1.35-2.07-3.56-.02-4.3,1.21-.71,1.68,1.12,2.34,1.76.86-.67,1.94-1.25,2.32-2.35.62-1.46-.25-2.96-.69-4.33,1.68.07,2.24-.86,1.7-2.4l-8.21,2.14M268.33,196.03l-.54,1.99c2.16.73,4.36,1.39,6.39,2.43l-6.91-.93-.81,1.99c1.93,1.25,3.92,2.41,5.76,3.79l-6.28-2.18-.69,1.91c3.1,1.16,6.23,2.25,9.38,3.27l.95-2.88c-2.02-1.31-4.07-2.58-6.15-3.79,2.45,0,4.87.36,7.3.57l1-2.87c-3.12-1.14-6.27-2.24-9.42-3.28M262.47,213.53c.55,1.72,2.54,2.13,4.08,1.63.85,1.41,2.81,2.47,4.2,1.1,1.38-1.68,2-3.84,2.85-5.81-3-1.27-5.95-2.65-8.91-3.99-.93,2.26-2.67,4.49-2.22,7.07M261.1,214.07l-.93,2.05,1.37,1.44c-.82,1-1.08,3.15-2.78,2.88-1.28-.33-1.63,1.04-2.22,1.82l10.4,1.79,1.23-2.2c-2.38-2.57-4.5-5.38-7.07-7.78M254.12,225.82c1.04.7,2.14,1.33,3.09,2.16,1.37,1.75,2.1,3.88,3.32,5.73.79-.27,1.06-1.19,1.57-1.77-.81-1.23-1.59-2.48-2.34-3.73,1.47.17,2.94.36,4.41.57l1.34-2.2c-3.38-.36-7.28.3-9.82-2.48l-1.56,1.74h0ZM144.1,48.42l.63-3.44,1.55,3.19-2.18.25ZM129.29,47.11c1.28-.16,2.94-1.03,3.87.32.89,1.4,1.53,3.67.1,4.93-.77.38-1.61.62-2.42.89,0,0-1.56-6.14-1.56-6.14ZM93.23,65.48c.8-.49,1.61-.52,2.43-.07.49,1.36-2.98,1.46-2.43.07Z"/>
    <path class="st0" d="M84.74,67.53l2.15-1.48c.59.61,1.13,1.29,1.68,1.95l-1.94,1.77s-1.89-2.24-1.89-2.24ZM234.68,71.09c1.27-1.23,3.62-.85,4.13.96.4,2-1.26,3.8-3,4.5-1.48.15-2.8-.92-2.96-2.4.24-1.18.88-2.3,1.83-3.06h0ZM160.6,83.55c3.86,3.5,5.73,8.53,7.27,13.37,2.9,8.97,2.84,18.97-.64,27.77-1.04,2.72-2.85,5.31-5.56,6.56-1.99.63-3.74-.9-5.17-2.06-3-3.05-4.36-7.3-5.13-11.41-1.78-9.79.64-19.91,5.16-28.64,1.06-2.06,2.48-3.91,4.07-5.59ZM142.05,85.07c4.43,1,8.35,4.7,9.2,9.18-1.78,5-3,10.19-3.42,15.49-.38,7.36,1.43,15.02,6.22,20.77-7.08-.67-12.03-6.84-13.98-13.25-2.3-6.24-.76-12.92.25-19.26.82-4.28,1.28-8.61,1.72-12.94ZM169.69,93.22c2.61-3.09,5.91-6.35,10.2-6.56-3.31,10.21.73,20.94-1.39,31.29-.88,5.4-3.91,10.69-8.92,13.22-.95.78-2.01.16-2.97-.22,3.47-4.54,5.47-10.09,5.98-15.77.98-7.43-.62-14.92-2.9-21.97h0ZM127.46,92.99c4.22-.54,7.25,3.01,9.47,6.07-1.09,7.67-1.94,15.93,1.68,23.1,2.06,4.56,6.2,7.55,10.24,10.23-4.76.3-9.63-1.42-12.92-4.91-3.35-3.6-5.76-8.12-6.68-12.97-1.43-7.1-.57-14.4-1.78-21.53ZM181.94,99.68c1.66-3.05,5.25-4.69,8.58-5.28.2,2.94-.56,5.82-.84,8.74-.95,7.45-1.38,15.32-5.4,21.9-2.38,4.21-6.73,7.25-11.6,7.67,2.35-2.32,4.98-4.47,6.39-7.55,4.06-7.87,3.3-16.96,2.87-25.49h0ZM115.35,100.13c4.18-.37,8.54,2.08,10.3,5.9,0,8.08,2.2,16.52,7.88,22.5,2.09,2.34,4.81,3.95,7.35,5.75-6.72.26-12.93-3.93-16.24-9.61-3.04-5.65-4.39-12.01-6.22-18.11-.72-2.28-2.12-4.25-3.07-6.43h0ZM192.4,104.91c2.64-1.9,5.89-3.05,9.18-2.65-1.33,2.67-2.84,5.28-3.61,8.18-1.5,5.3-2.63,10.93-6.11,15.36-2.76,3.93-6.66,7.67-11.75,7.82,4.52-3.64,7.84-8.56,9.53-14.12,1.34-4.78,1.77-9.76,2.76-14.59ZM107.31,111.04c3.47-1.62,8.12-.83,10.51,2.25,1.75,5.01,2.63,10.54,6.06,14.78,1.85,2.48,4.37,4.31,6.79,6.17-4.22.28-8.78-.72-11.77-3.9-4.08-4.31-5.02-10.47-8.25-15.31-1.01-1.41-2.24-2.64-3.34-3.99h0ZM200.62,115.07c2.38-2.12,5.64-3.56,8.87-2.88-1.27,1.97-2.75,3.81-3.91,5.85-2.3,3.96-3.91,8.38-7.02,11.82-3.35,3.78-8.28,5.75-13.31,5.34,4.69-3,8.45-7.28,11.2-12.09,1.52-2.62,1.79-5.96,4.18-8.03h0ZM38.44,127.82c.46-2.06,2.45-2.82,4.39-2.41l-.89,3.15c-1.21-.01-2.42-.16-3.5-.74h0ZM272.97,128.12c1.26-.37,2.86-.07,3.44,1.26,1.5,3.53-5.45,5.71-6.23,2.01-.5-1.75,1.29-3,2.8-3.27h0ZM156.59,134.48c4.09-.76,8.61-.49,12.13,1.92,3.29,2.18,6.1,5.72,6.2,9.8-.02,4.78-5.47,7.99-9.84,6.97-1.7-.12-3.08-1.37-4.68-1.67-2.6.93-5.34,2.1-8.17,1.44-4.37-.69-7.8-5.75-5.88-9.97,1.88-4.17,5.56-7.78,10.23-8.5h0ZM127.38,138.02c6.35-2.08,13.14-1.17,19.7-1.25-1.86,2.42-3.16,5.19-4.5,7.9-1.17,2.7-4.29,3.54-6.8,4.51-6.14,1.81-12.96,2.37-19.11.31,4.61-2.83,5.36-9.51,10.71-11.47h0ZM174.52,137.09c4.04.43,8.08.97,12.15,1.09,1.73.08,3.56.51,4.86,1.72,2.78,2.49,4.47,5.88,6.87,8.69,1.36,1.57,3.19,2.61,4.69,4.03-7.32,4.09-16.46,2.2-23.56-1.47-1.27-.75-.96-2.43-1.22-3.66-.23-3.78-2.16-7.1-3.79-10.41ZM34.84,146.96c-.18-2.38,2.18-3.81,3.74-5.19l-.95,6.62c-1-.18-2.8.07-2.79-1.42h0ZM275.79,146.57c1.89-.73,4.72-.09,4.72,2.37-.59,2.53-4.15,3.24-6.04,1.75-1.3-1.38-.52-3.75,1.33-4.12ZM141.33,154.79c.22-2.02-1.06-5.05,1.54-5.89.11,2.09.93,4.9-1.54,5.89ZM137.52,151.15l2.03-.8.1,5.43-2.12.75v-5.38ZM134.12,151.68l1.87-.09v4.76c.24,1.15-1.23,1.1-1.89,1.49v-6.16s.01,0,.01,0ZM118.51,152.7l2.77.31-.08,2.31c-1.03-.73-2.05-1.52-2.69-2.62ZM130.21,152.49l2.01-.26c.22,1.81.28,3.62.3,5.44l-2.17.53c-.26-1.89-.28-3.81-.13-5.71ZM122.87,153.07h2.18s0,4.02,0,4.02l-2.22-.88.03-3.14ZM126.65,152.99l2.02-.14v4.99l-2.02-.2v-4.66ZM147.05,153.92l1.79.61.04,3.23-1.74-1.69-.09-2.14h0ZM172.03,154.51l1.86-.86c.06,1.18.19,2.37.05,3.55-.53.7-1.23,1.23-1.87,1.83l-.04-4.52ZM178.35,154.58c.63-1.13,1.63.26,2.43.44l-.13,3.91-2.1-1.35c-.42-.92-.24-2.02-.2-3ZM150.93,155.04l1.96.19-.04,5.19-2.03-1.25.11-4.13h0ZM159.25,155.83l1.17-1.04,1.46.76v6.6s-2.85-.09-2.85-.09l.23-6.23h0ZM163.78,155.76l2.26-.44c.37,2.07.32,4.18.28,6.28l-2.62.4.08-6.23h0ZM168,155.13l2.35-.2v5.5s-2.36.68-2.36.68v-5.98Z"/>
    <path class="st0" d="M154.76,155.59l2.63.22-.03,5.9-2.52-.59-.09-5.52h0ZM182.35,155.81l2.41.7.02,3.56-2.26-.57c-.23-1.22-.13-2.46-.16-3.69h0ZM196.63,158.33c.14-2.05,2.35-1.89,3.85-2.2-1,1.15-2.19,2.33-3.85,2.2ZM186.41,157.09l2.16.05-.05,3.61-2.14-.6.03-3.07ZM190.23,157.46l1.95.05v2.79s-1.9.35-1.9.35l-.05-3.19h0ZM193.87,157.31l1.38-.21.15,2.46-1.62.44.09-2.69h0ZM38.46,158.52c1.64,0,3.31-.18,4.94.13.98,1.26,2.65,3.4.94,4.78-1.25-.43-.93-1.87-1.17-2.88-1.78.51-1.01,2.44-1.19,3.79-1.7-.4-.8-2.57-1.11-3.82l-1.99.05s-.41-2.06-.41-2.06ZM159.06,164.55l2.99.15c-1.13,3.87-2.41,7.78-2.45,11.86-.19,3.72.53,7.39,1.17,11.03-1.39-.22-3.5-.6-3.73-2.3-1.34-6.9-.98-14.31,2.01-20.74h0ZM39.6,173.79c1.12-.3,2.28-.38,3.44-.51.2.79.61,1.57.51,2.41-1.13.63-2.46.66-3.7.91-.1-.94-.27-1.87-.25-2.82ZM273.79,179.39l2.53.41-.86,3.63c-2.55.22-1.83-2.4-1.67-4.04ZM277.91,180.12l2.1.18-.82,3.59c-2.09-.24-1.36-2.26-1.27-3.77h0ZM161.09,189.42c6.42-4.2,14.92-4.75,21.97-1.85,4.57,1.76,9.48,2.66,14.38,2.18,3.94,6.83,8.52,13.33,11.94,20.44-10.45.42-20.47-3.47-30.88-3.58-3.59-.04-7.26-.03-10.71,1.04-2.67.73-4.98,2.31-7.5,3.4-.08-7.22.94-14.4.79-21.62M164.45,190.97l.96,1.33c1.14-.46,2.28-.91,3.42-1.34l-.69-1.35-3.69,1.36M169.65,189.46c.28,1.65,1.95,1.42,3.23,1.62l.15-1.57c-1.13-.04-2.26-.07-3.38-.05M174.75,189.56l-.19,1.47c1.23.24,2.46.51,3.69.77l.15-1.54-3.66-.69M179.5,190.85l.04,1.42,2.8.25-.1-1.48-2.74-.2M184.21,191.47l-.15,1.45,3.23.46c.13-.31.4-.92.53-1.23-1.19-.32-2.41-.53-3.62-.68M189.41,193.71l3.12-.04c.06-2.08-3.65-2.18-3.12.04M165.07,194.38l1.01,1.25c1.64-.62,3.36-1,5.1-1.25l.16-1.39c-2.16.03-4.3.5-6.27,1.38M173.28,192.89v1.57s3.17.4,3.17.4l.26-1.49-3.42-.49M178.61,193.66l-.57,1.39,3.52.75.22-1.5-3.16-.64M183.18,195.96l3.97.55.17-1.55-3.64-.44-.51,1.45M189.77,195.25c-.2.34-.57,1.04-.76,1.39,1.83.29,3.69.43,5.55.49l-.24-1.4c-1.52-.16-3.03-.43-4.55-.47M171.24,196.36l.15,1.52h3.95s.13-1.5.13-1.5c-1.41-.07-2.83-.07-4.24-.02M168.04,197.12c-.78.33-1.96.42-2.16,1.41,1.04,1.27,2.51.28,3.69-.2.3-.93-.65-1.89-1.53-1.22M177.05,196.54c-.69,2.27,1.93,1.77,3.3,2.16l.13-1.58-3.43-.58M181.75,197.46c-.34,2.3,2.18,1.85,3.66,2.23.65-2.39-2.27-1.77-3.66-2.23M187.35,198.32l-.07,1.61c1.42-.11,4.41,1.44,4.19-1.1l-4.12-.51M193.3,198.83l-.3,1.57c1.52-.03,3.69.8,4.7-.73-.79-1.47-3-.49-4.4-.84M172.57,199.71l-.04,1.7,3.32-.11-.07-1.73-3.21.13M166.2,201.49l1.53,1.44c1.27-.72,3.65-.88,2.71-2.94-1.46.38-2.87.9-4.24,1.5M177.37,201.64l3.66.44.09-1.62-3.11-.63-.63,1.81M182.74,200.91l-.24,1.71,4.37.62.23-1.66-4.36-.67M188.79,201.73l-.4,1.77c1.49.16,2.98.27,4.47.35l-.07-1.64c-1.34-.14-2.67-.3-4.01-.48M194.38,203.68c1.03,1.32,3.07.69,4.54.97l-.05-1.64c-1.46.19-3.89-1.38-4.49.67ZM142.15,187.36c5.58-1.32,11.9-1.23,16.77,2.13l-.97,21.24c-5.91-3.69-13.03-4.95-19.91-4.18-10.49.51-20.69,4-31.25,3.54.92-1.54,2-2.96,3.13-4.35l13.56-17.01c6.25.34,12.56.11,18.66-1.37M146.63,189.88c-.24,1.87,1.93,1.17,3.06,1.47.65-2.03-1.82-1.9-3.06-1.47M141.33,192.09c1.44-.2,2.86-.5,4.25-.9l-.84-1.17c-1.35.24-3.77,0-3.42,2.06M150.93,191.35c1.41.61,3.4,2.13,4.47.22-1.29-.33-4.24-2.65-4.47-.22M137.01,192c.57,1.18,2.08.46,3.1.61l-.2-1.69c-.97.31-2.29.11-2.9,1.08M127.54,191.69l-.11,1.52,2.44-.02-.05-1.5h-2.28M132.12,191.64l-.06,1.62c1.19-.16,2.56.2,3.61-.49-.13-1.85-2.35-.84-3.55-1.13M142.9,193.58l.23,1.54c1.07-.37,3.31.23,3.38-1.37-1-.81-2.44-.12-3.6-.17M148.22,193.27v1.48c1.8.24,3.54.8,5.3,1.25l1.09-1.11c-2.01-.96-4.18-1.49-6.39-1.62M137.77,194.46l.14,1.48c1.29-.16,2.58-.38,3.86-.67-.65-1.9-2.55-.95-4-.81M124.88,195.02l-.27,1.54c1.97.09,3.94.24,5.91,0l-.3-1.29c-1.79-.03-3.56-.14-5.34-.24M132.35,195l.03,1.56,4.04-.4c-.05-2.36-2.59-1.04-4.07-1.16M138.68,197.49l.65,1.59c1.23-.42,3.58-.25,2.92-2.24l-3.56.65M143.49,196.93c.69,1.92,2.81,1.23,4.39,1.36l.31-1.54c-1.57-.04-3.14.02-4.7.18M133.61,198.41l.64,1.42,3.39-.53-.38-1.64-3.65.75M149.5,198.66c1.4.54,3.31,1.9,4.11-.16-1.13-.46-2.28-.9-3.43-1.3l-.68,1.46M127.78,198.86c.1,2.41,2.82,1.05,4.31,1.23l-.2-1.62-4.11.4M121.77,198.76c-.21,2.45,2.76,1.25,4.22,1.7.04-.55.3-1.11.05-1.64-1.42-.11-2.85-.08-4.27-.07M142.96,200.16l.59,1.56c.96,0,1.92.02,2.88.05l.29-1.67c-1.25-.14-2.52-.16-3.76.07M137.91,200.69l.41,1.77,3.48-.67-.45-1.64-3.44.55M148.9,200.36l-.65,1.57,3.31,1.4,1.19-1.43c-1.26-.56-2.54-1.08-3.85-1.54M132.04,201.64l.15,1.73c1.51-.18,3-.4,4.5-.67l-.48-1.59-4.17.53M126.03,202.25l.22,1.64,4.4-.36-.2-1.68-4.43.4M119.42,202.31v1.8c1.69.05,3.37,0,5.05-.13v-1.66s-5.05,0-5.05,0ZM272.36,189.39c2.1-1.32,6.47.3,5.4,3.25-.87,2.2-3.87,1.77-5.44.61-1.38-.86-1.22-2.99.05-3.87h0ZM43.43,194.59l4.37-1.18c.82,1.12,1.9,2.41.85,3.79-1.22-1.72-3.2-1.36-4.8-.45l-.42-2.16h0ZM44.77,204.29l1.23,3.25c-.96.45-2.15,2.18-3.12.87-1.35-1.6.88-3.09,1.89-4.12h0ZM115.23,211.55c8.99-.98,17.84-3.54,26.95-3.36,4.31.02,8.74.71,12.56,2.82.82.35,1.43,1,1.64,1.88-2.11-.71-4.08-1.81-6.23-2.39-4.59-1.29-9.42-1.23-14.13-.75-8.29,1.06-16.55,2.53-24.89,3.09-1.86,0-3.95.38-5.46-.96,3.19-.11,6.39.03,9.57-.32h0ZM162.32,212.2c4.85-3.47,11.09-4.23,16.9-3.93,10.37.68,20.47,4.12,30.93,3.73l-1.32.77c-10.25.62-20.09-3.52-30.33-3.32-5.34-.2-10.68,1.4-15.07,4.43-.45-.51-.82-1.07-1.11-1.68h0ZM265.49,209.13l2.24,1.06-1.9,3.34c-2.26-.72-1.08-2.93-.34-4.41h0ZM115.79,213.77c10.56-.87,21.05-4.18,31.7-2.59,2.63.54,5.58,1.09,7.42,3.24-2.92-.75-5.73-2.01-8.76-2.26-10.85-1.39-21.49,1.96-32.25,2.67-2.14.03-4.3.14-6.41-.29,2.74-.51,5.53-.47,8.29-.78h0ZM170.16,211.97c4.44-1.51,9.2-1.1,13.8-.98,8.35.88,16.51,3.54,24.98,3.09-2.03.6-4.17.76-6.27.48-9.81-.72-19.62-4.34-29.48-2.03-3.25.53-6.02,2.42-9.18,3.23,1.28-2.2,3.91-2.94,6.14-3.78h0ZM269.15,211l2,.65c-.61,1.12-1,2.53-2.22,3.15-1.31-1.01-.07-2.59.22-3.8h0ZM108.4,216.15c10.7.57,21.07-2.82,31.71-3.17,4.7-.07,9.46.74,13.74,2.72l-.71,1.52c-4.88-1.47-9.88-2.79-15-2.73-6.15.27-12.07,2.3-18.22,2.49-3.84.16-7.81.27-11.52-.84h0ZM159.16,212.68c2.55,2.37,4.74,5.5,5.24,9-.35,2.47-3.44,2.65-5.4,2.65-1.87.19-4.35-.46-4.74-2.58.07-3.61,2.76-6.41,4.9-9.07ZM172.75,213.98c12.15-2.93,24.15,2.76,36.37,1.89-.55.68-1.33,1.17-2.25,1.07-3.91.32-7.77-.49-11.59-1.19-7.36-1.04-14.94-1.9-22.29-.32-2.57.49-4.98,1.5-7.46,2.25,1.6-2.38,4.68-2.9,7.24-3.69h0ZM125.31,217.77c5.16-.8,10.31-2.26,15.59-1.85,3.83.37,7.67,1.11,11.3,2.43l.3,1.33c-6.26-1.48-12.7-2.72-19.15-1.92-7.81.98-15.76,2.33-23.61.9l-.82-.78c5.44.61,10.96.76,16.38-.12h0ZM171.18,217.16c9.51-2.75,19.48-.84,29.01.71,2.72.55,5.5.38,8.26.49-.77.8-1.97.73-2.98.81-8.12.18-16.11-2.07-24.25-1.64-5.22-.28-10.2,1.46-15.29,2.21,1.25-1.66,3.43-1.94,5.26-2.58h0ZM131.99,219.21c4.97-.4,10.04-.47,14.96.55,1.83.39,3.81.55,5.34,1.74-4.27-.64-8.55.08-12.83-.07-10.09-.08-20.17.1-30.26,0v-1.44c7.59,1.21,15.27.33,22.79-.78h0ZM170.36,220.21c9.05-2.18,18.47-1.43,27.58-.11,3.71.56,7.47.27,11.21.27l-.59,1c-13.66.09-27.33.09-41,0,.88-.51,1.79-.96,2.8-1.16h0ZM261.71,220.98l1.27-1.94,2.33,2.63-3.6-.69ZM69.25,267.02c42.1-17.88,88.6-22.72,133.48-13.89,15.76,2.94,31.02,8.06,45.85,14.06-2.94,7.05-6.39,13.87-9.51,20.85-24.77-8.91-51.04-13.91-77.39-13.89-28.13-.49-56.28,4.19-82.94,13.08-3.18-6.72-6.64-13.33-9.49-20.2M192.78,252.54l.35,2.14c1.43.8,2.18,2.2,2.52,3.76-2.88-.42-5.77-.77-8.66-1.08l.9,2.05c1.13.2,2.27.4,3.39.69-.82.96-2.04,1.21-3.2,1.5l.44,2.03c-1.51.7-3.87,1.83-4.93-.15.82-1.35,2.43-.61,3.67-.7-.24-1.14-.9-1.72-1.99-1.72.57-.5,1.68-.65,1.67-1.58.05-2.04-2.67-2.94-4.12-1.82-1.01,1.04,0,2.27.37,3.35-.37,1.13-1.27,2.41-.32,3.51,1.1,2.12,4.91,2.75,6.04.38,1.16,1.3,2.78,1.79,4.49,1.62-.32,1.47.94,2.26,1.85,3.15l1.38-8.99c1.69.28,3.37.6,5.05.96-.56,1.29-2.07,1.22-3.22,1.56.4,1.43.28,3.26,1.57,4.27.94.87,2.29.74,3.48.88-.35,1.45.64,2.41,1.62,3.29l2.1-8.75,3.46.7c-.15.84-.38,1.67-.67,2.47-.34.66-1.55,1.16-1.02,2.01.44.77.73,2.28,1.86,2.13l1.23-1.13,2.78.64-.72,2.49.67.98c-.75.62-.91,1.88.11,2.33,1.64.92,2.24,2.76,3.32,4.19-.28-2.03-1.1-3.93-2.32-5.57.7-2.88,1.45-5.75,2.38-8.56l2.24.67-.31-2.17c-7.8-2.12-15.66-4.06-23.63-5.44-.65-2.33-.94-5.55-3.83-6.1M137.98,257.11c.47.89.81,2.04,2.05,1.98.28,1.54,0,3.38,1.13,4.64,1.22,1.08,2.87.92,4.33.52-.07,1.65.87,2.72,2.41,3.25-.08-3.06-.39-6.1-.33-9.16l3.58.05-.13,2.36-2.39-.22c.21,2.82,2.72,4.62,4.41,6.62,2.32-1.06-1.46-2.63-1.14-3.86,1.74-1.16,1.34-3.27,1.37-5.07l2.92-.02c-.04,1.4.15,2.97-1.14,3.91.78.98,1.65,1.9,2.59,2.74l.98-1.83,2.78.1-.1,2.57,2.22,1.33v-8.99s2.14.05,2.14.05c-.02,1.43-.03,2.92-1.08,4.03.28,1.21,1.45,1.92,2.3,2.74l1.13-1.6h2.54c.07,1.27-.06,2.7,1.02,3.62l-1.21.05.84,1.58c2.23,0,3.29,2.09,4.93,3.21-.71-1.84-2.06-3.31-3.45-4.68l.32-8.68,2.29.02-.93-2.03c-12.12-.32-24.27-.21-36.37.74M96.26,266.32l1.83,1.49c2.33-1.04,4.69-2.18,7.27-2.4-1.42,2.09-5.3,1.4-5.84,3.98,1.54-.1,3.27,0,3.68,1.79l-2.46.34.32,1.83c1.7.4,3.35.95,4.9,1.75.43-1.11-.72-1.52-1.23-2.2.32-1.22.55-2.44-.47-3.4-.98-.94.96-1.15,1.4-1.56l1.56,4.64,2.42.63-2.71-8.54,1.66-.62,1.99,7.4,2.53.8c-.85-2.9-1.62-5.83-2.38-8.76l7.52-1.75.46,1.84c-1.79.4-3.62.67-5.34,1.32-1.26,1.48,1.1,2.74,2.3,3.29.18-1.93,1.64-2.58,3.37-2.7l.66,3.71,2.45,1.15-1.61-8.93,2.26-.4c.18,1.4.83,3.01-.59,4.01.87.99,1.9,1.82,3.05,2.47l.65-1.86,2.63-.38c.26,1.11.38,2.31,1.19,3.18.11.68.15,1.77,1.08,1.81,1.93.13,3.33,1.48,4.8,2.57-.74-1.97-2.53-3.23-4.28-4.22-.44-2.85-.77-5.73-1.15-8.58l2.19-.41-1.06-1.72c-11.96,1.35-23.9,3.75-35.02,8.45h0ZM142.22,258.86l3.09-.38.04,3.42c-.78.46-1.54.97-2.38,1.31-.9-1.14-.44-2.95-.75-4.35ZM158.29,258.03l3.11.09-.05,2.96-2.98.1-.08-3.15ZM167.77,258.18l3.02.06v3l-3.05.04.03-3.1ZM184.68,258.27c1.5-.38,1.24,2.19-.14,1.85-1.08-.18-.81-1.72.14-1.85ZM124.88,260.79l3.05-.6.53,3.01-3.09.52-.49-2.93h0ZM192.24,260.02l2.31.3c-.23,1.19-.39,2.4-.78,3.56-1.27.9-2.85.53-4.22.12,1.33-1.13,3.4-1.81,2.69-3.98h0ZM202.95,261.8l2.3.61c-.61,1.17-.32,3.22-1.9,3.62-1.25.57-2.59-.04-3.51-.92,1.78-.38,3.37-1.2,3.11-3.31ZM212.24,267.19l.55-3.13,3.41.94-.69,2.72-3.27-.53ZM65.83,280.21l2.9-1.3c3.96,8.13,7.81,16.31,11.37,24.61l-2.11.91-12.17-24.22ZM237.69,303.67l11.41-24.64,2.94,1.35-12.17,24.25-2.18-.96h0ZM60.65,282.79l2.76-1.42,12.08,23.94-2.42,1.18c-4.23-7.85-8.44-15.72-12.42-23.7h0ZM253.31,283.7c.38-.69.67-1.48,1.28-2.01.93.39,1.81.88,2.71,1.34l-12.38,23.55-2.53-.92c3.41-7.43,7.28-14.65,10.92-21.96h0ZM55.96,285.61c.65-.65,1.52-1,2.31-1.41l12.14,23.26-2.19,1.18-12.26-23.02h0ZM247.9,307.24c3.76-7.67,7.86-15.2,11.9-22.73l1.75,1.18c-3.89,7.71-8.1,15.25-12.16,22.87l-1.5-1.31h0ZM78.72,293.84l3.29.75,2.91,7.12-2.26.96c-1.36-2.93-2.78-5.83-3.95-8.84ZM235.85,294.65l3.35-.73c-1.21,3.01-2.63,5.94-4.02,8.87l-2.27-.88c.86-2.47,1.91-4.86,2.94-7.26h0ZM85.32,295.31l2.9.65c.62,1.37,1.15,2.8,1.52,4.26l-2.35.64c-.78-1.82-1.55-3.65-2.07-5.55ZM229.55,296.28c.91-.58,2.07-.54,3.09-.82l-2.25,5.57-2.31-.66c.4-1.39.72-2.84,1.48-4.08ZM91.54,296.69c1.7.36,3.5.52,5.07,1.33l-4.33,1.26-.74-2.59ZM220.93,298.12c1.8-.57,3.64-1,5.52-1.22l-.96,2.49-4.56-1.27Z"/>
  </g>
  <g>
    <path class="st1" d="M154.48,4.04h9.61c5.07.3,10.15.61,15.19,1.3l5.46,22.6c6.99,1.38,13.88,3.23,20.62,5.53l17-16.55c10.99,4.69,21.64,10.34,31.16,17.58l-6.35,22.01c5.54,4.5,10.58,9.55,15.47,14.75l21.07-8.11c7.62,9.21,14.05,19.38,19.58,29.97l-16.11,16.69c2.52,5.96,4.8,12.02,6.42,18.29,7.62,1.01,15.26,1.89,22.84,3.17,2.43,11.24,3.27,22.73,3.56,34.19v.88l-22.19,7.47c-.55,6.49-1.5,12.94-2.78,19.32,6.32,4.68,12.98,8.94,18.92,14.12-3.16,11.76-8.08,22.98-13.89,33.66l-22.37-4.93c-3.99,6.29-8.31,12.36-12.97,18.17l-13.32-10.39-17.49-14.58c2.61-3.23,5.42-6.3,7.74-9.75,11.09-16.55,17.56-36.39,17.23-56.39-.07-19.65-6.07-38.82-17.22-55-12.65-18.52-31.76-32.58-53.31-38.88-19.83-5.88-41.55-5.58-61.04,1.53-20.61,7.22-38.49,21.67-50.32,39.99-4.55,7.14-8.09,14.92-10.79,22.95-3.89,11.64-5.19,24.05-4.57,36.27,2,22.3,11.57,43.61,26,60.63l-30.4,24.72c-4.51-5.59-9.16-11.12-12.99-17.21-.49-.53-.86-1.72-1.81-1.37l-22.74,4c-6.09-10.83-10.64-22.48-13.97-34.45l20.07-12.35c-1.46-6.91-2.59-13.89-3.1-20.94L.24,166.34l-.24-2.2v-6.26c.37-9.26,1.49-18.49,3.67-27.5l23.57-2.91c1.97-6.48,4.02-12.96,6.72-19.17-5.4-5.77-10.97-11.39-16.49-17.05,5.73-11.25,12.58-22.04,21.36-31.18l20.64,9.84c4.89-4.98,10.12-9.61,15.37-14.2l-7.24-22.05c10.5-6.95,21.34-13.62,33.11-18.21l15.61,17.46c6.82-2.44,13.98-3.67,20.99-5.3,2.28-7.51,4.23-15.13,6.35-22.7,3.59-.38,7.19-.66,10.8-.86M148.43,10.25c-2.23,7.55-4.12,15.2-6.39,22.74-9.3,1.41-18.53,3.49-27.37,6.77-4.8-5.14-9.34-10.52-14.07-15.75-.65-.48-1.31-1.76-2.26-1.09-7.44,3.17-14.37,7.4-21.25,11.6-.77.61-1.91.95-2.29,1.91,2.29,7.15,4.83,14.23,6.97,21.43-7.38,5.84-14.36,12.21-20.79,19.08-6.93-3.11-13.76-6.41-20.6-9.7-6.14,7-11.28,14.82-15.61,23.05,5.31,5.75,11.08,11.06,16.3,16.89-3.95,8.11-6.76,16.76-8.93,25.5-7.79,1.08-15.59,2.06-23.4,2.94-2.1,8.63-2.9,17.57-2.64,26.44l22.49,6.63c.09,8.66,1.43,17.26,3.5,25.66.05.83.88,2.08-.13,2.61-6.31,4.18-12.96,7.83-19.27,12.01,2.47,7.95,5.44,15.75,9.14,23.22.48.63.65,1.74,1.54,1.9,7.69-.97,15.33-3.04,22.97-3.75,3.69,5.76,7.36,11.58,11.94,16.7l18.67-15.1c.92-.73,1.76-1.54,2.57-2.39-16.13-21.08-25.91-47.94-23.32-74.68,1.89-23.71,12.41-46.58,29-63.59,14.54-15.07,33.64-25.78,54.2-29.92,13.51-2.92,27.57-2.7,41.11-.14,23.23,4.43,44.67,17.26,59.85,35.35,13.67,16.18,22.29,36.63,24.08,57.76,2.57,26.36-5.81,53.36-22.06,74.18,6.99,6.04,14.13,11.92,21.55,17.44,3.99-5.26,7.57-10.8,10.95-16.45l22.22,4.8c4.17-7.97,7.81-16.24,10.32-24.9-6-4.97-12.71-8.99-18.82-13.81,2.25-8.56,3.11-17.42,4.01-26.2l21.54-7.14c-.14-8.67-.96-17.32-2.46-25.87l-22.72-3.06c-1.77-8.61-5.18-16.71-8.44-24.83l15.77-16.24c-4.2-7.71-8.91-15.17-14.29-22.12-7.03,2.61-13.95,5.57-21.04,7.96-6.13-7.09-12.97-13.54-20.31-19.37l6.3-21.8c-7.26-5.08-15.03-9.59-23.26-12.86-5.79,5.11-11.02,10.83-16.67,16.11-8.79-3.07-17.78-5.58-26.96-7.16l-5.27-22.13c-8.71-1.41-17.6-.86-26.39-.65h0ZM164.23,41.32l2.13-.09c.03,3.3-.23,6.59-.29,9.89l-2.22.05.38-9.86h0ZM150.56,41.65l2.29-.2c1.26,2.06,2.53,4.12,3.98,6.05l-.24-6.21h2.01c.09,3.28.4,6.56.37,9.84-.79-.24-1.97.16-2.47-.67-1.33-1.93-2.47-3.98-3.84-5.88.24,2.28.33,4.57.44,6.87-1.08.07-2.41-.11-2.16-1.53l-.38-8.29h0ZM168.43,41.36l2.12.36c1.36,2.08,2.15,4.47,3.06,6.77.4-2.13.6-4.29.75-6.44l2.04.04-.85,9.76c-.74.05-1.48-.02-2.2-.2-1.16-2.18-1.98-4.52-3.21-6.66l-.64,6.54-1.9-.46c.06-3.25.57-6.48.83-9.72h0ZM143.11,42.58l2.57-.48c1.56,3.13,3.07,6.29,4.76,9.35l-2.36.32-.84-1.82c-1.1.11-2.21.18-3.29.4-.34.64-.61,1.31-.79,2.02l-2.11.36c.63-3.39,1.42-6.75,2.06-10.15M144.1,48.42l2.18-.25c-.49-1.08-1-2.14-1.55-3.19-.26,1.14-.45,2.29-.63,3.44ZM136.44,43.63l2.14-.37,1.85,9.76-2.25.11c-.48-3.19-1.19-6.33-1.73-9.5ZM177.85,45.78c.06-3.35,4.66-3.83,6.68-1.93.89.77.88,2.05,1.25,3.07-2.08.28-2.67-2.06-4.47-2.37l-1.6,1.19c1.48.9,3.11,1.56,4.54,2.54,1.53,1.06.98,3.69-.58,4.47-2.76,1.44-6.94-.31-6.8-3.75l2.06.34c.23,1.91,4.33,3.03,3.84.48-1.64-1.25-4.82-1.54-4.92-4.04h0ZM186.88,45.98l.24-1.92,7.83,1.93-.3,1.87-2.99-.66c-.57,2.62-1.24,5.21-1.99,7.78l-2.08-.75c.71-2.54,1.4-5.09,1.95-7.67l-2.65-.57h0ZM126.69,45.94c2.18-.49,4.39-1.43,6.66-1.03,2.7,1.24,3.4,4.94,2.55,7.54-1.35,2.37-4.43,2.32-6.75,3.06l-2.47-9.57M129.29,47.11l1.56,6.14c.81-.27,1.64-.51,2.42-.89,1.43-1.26.79-3.52-.1-4.93-.94-1.35-2.59-.49-3.87-.32ZM196.04,46.45l2.1.6-2.94,9.45-2.1-.67,2.94-9.37h0ZM122.46,47.25l2.07-.55c.95,3.12,2.13,6.17,3.11,9.28l-2.12.63c-1.85-1.66-3.71-3.31-5.65-4.87l2.13,6.12-1.95.8-3.28-9.24c.73-.32,1.48-.61,2.23-.92,1.77,1.66,3.6,3.24,5.5,4.75-.65-2.01-1.35-4-2.03-6h0ZM199.22,47.36l7.55,2.76-.64,1.83-2.71-1.02c-1.1,2.44-1.57,5.19-3.04,7.44l-1.64-.67c.52-2.59,1.72-4.99,2.57-7.47l-2.7-1.11.61-1.75h0ZM97.56,51.94c.47-1.21,2.03-1.15,3.07-1.5-.51.9-1.33,1.64-1.64,2.65.58.67,1.27,1.22,1.96,1.77l2.14-1.33.68,1.43-1.57.9,1.21,2.06c-1.15.81-2.96,1.19-3.1,2.85,1.43-.38,2.55-1.64,4.03-1.75,1.92.88,1.41,3.25.96,4.88l2.45-.05-.5,1.6c-2.21-.38-4.43-.36-6.66-.2l-.02-1.76,3.21-.33.27-2.28c-1.73,1.44-4.61,1.83-6.03-.22-.69-2.27,3.6-1.89,2.81-3.91-1.89.79-3.6,1.95-5.35,3.01,1.6,2.33,3.09,4.74,4.68,7.07l-1.64,1.15-1.02-1.89c-1.13.95-2.26,2.34-3.93,1.99-1.91-.07-3.14-2.62-2.05-4.19.69-1.1,2.24-2.52,3.31-1.05l-1.83,1.54,3.06-.18-2.17-3.46-5.52,3.98c1.55,2.01,3.13,4,4.71,5.99,1.5-.52,3.6-.49,4.18,1.33.28,2.85-3.16,4.88-5.7,4.07l-.05-1.12c1.91-.07,3.87-.73,4.24-2.86-1.17-.15-2,.61-2.87,1.23-1.27-1.24-2.27-2.7-3.35-4.1l-1.79,1.48.63,2.03c-1.29.02-2.58.02-3.87,0l.39-2.06-1.48-1.83c-.65.85-2.56,1.97-2.52.13,5.68-5.17,12.01-9.66,18.72-13.39-.96-1.01-2.77-2.04-2.07-3.7M93.23,65.48c-.55,1.39,2.92,1.29,2.43-.07-.82-.45-1.63-.42-2.43.07M84.74,67.53l1.89,2.24,1.94-1.77c-.55-.66-1.08-1.33-1.68-1.95-.75.44-1.44.96-2.15,1.48ZM112.96,50.64l2.08-.24c1.37,2.86,2.44,5.86,3.69,8.78l-2.05.84c-1.24-3.13-2.7-6.17-3.73-9.38ZM208.07,50.68l2.05,1c-1.15,2.28-2.26,4.6-3.02,7.05.84.71,1.87,1.16,2.96,1.3,1.16-2.14,1.99-4.44,3.18-6.56.64-.63,1.45.51,2.14.67-1.14,2.12-1.93,4.41-3.15,6.49-1.93,3.38-8.37.42-7.07-3.27.74-2.32,1.97-4.44,2.91-6.68ZM215.67,56.35l1.06-1.66c2.22,1.37,4.6,2.45,6.79,3.87l-.6,1.72-2.74-1.39-3.91,6.97c-.61-.38-1.21-.77-1.8-1.18,1.1-2.39,2.53-4.59,3.76-6.91l-2.56-1.43h0Z"/>
    <path class="st1" d="M219.55,67.45c1.65-2.79,3.56-5.42,5.32-8.13l6.12,4.08-1.14,1.53c-1.4-.94-2.82-1.86-4.24-2.76l-.95,1.63,3.88,2.41-.92,1.65c-1.33-.83-2.61-1.76-4.01-2.47-.5.55-.92,1.15-1.36,1.74,1.28.86,2.6,1.66,3.85,2.58,1.27.27-.1,2.3-.89,1.58-1.99-1.1-3.98-2.3-5.67-3.84h0ZM83.85,62.48l1.74-1.44,1.22,1.66-1.73,1.27s-1.23-1.49-1.23-1.49ZM234,68.89c2.84-1.79,6.89.63,7.02,3.87.05,2.25-1.49,4.18-3.31,5.32-2.8,1.64-6.84-.72-6.82-3.95-.21-2.2,1.35-4.15,3.12-5.25M234.68,71.09c-.95.75-1.58,1.88-1.83,3.06.16,1.48,1.48,2.55,2.96,2.4,1.74-.7,3.4-2.5,3-4.5-.51-1.81-2.86-2.19-4.13-.96h0ZM237.2,81.05c2.41-2.28,4.49-4.88,7.01-7.05l5.02,5.05-1.63,1.2-3.35-3.36-1.02,1.31c.4,1.28,1.81,2.03,2.69,3.01l-1.27,1.48-2.92-2.93-3.05,2.92s-1.47-1.64-1.47-1.64ZM70.27,78.41c.94-.81,1.81-2.67,3.29-1.77l-.59,1.58c1.89,1.95,3.91,3.78,5.87,5.66l-1.22,1.58c-1.13-1.13-2.17-2.35-3.48-3.27-.58.44-1.14.91-1.68,1.39l.96,2.41c-1.22-.19-3.15.66-3.86-.65.4-1.81,2.34-2.85,3.2-4.46-.43-.53-.87-1.04-1.33-1.54l-5.07,5.73,6.62,5.42-1.03,1.57c-2.26-1.76-4.47-3.58-6.7-5.4l-1.35,1.52c2.24,1.71,4.46,3.46,6.77,5.08l-.89,1.64-2.24-1.55c-.34,1.75-1.06,3.63-2.76,4.46-1.46.53-3.31.12-4.2,1.77l-.99-1.49,2.26-1.41c.12-.79.75-1.66.17-2.41-.38-1.21-2.37-1.74-2.37-.01l2.4,1.19c-1.5,1.23-3.35,1.17-4.26-.64.48-1.18.81-2.68,2.19-3.13,1.1-.18,2.41-.17,3.21.73,1.11,1.04.8,2.7,1,4.06,1.25-1.11,2.2-2.78,1.37-4.46-.75-.82-1.68-1.46-2.53-2.17-.75.34-1.66,1.44-2.24.28,2.55-4.31,6.18-7.91,9.45-11.71h0ZM153.28,88.64c2.3-3.79,4.37-7.79,7.5-10.98,2.93,3.65,5.5,7.59,7.53,11.82,4.09-4.37,10.09-7.42,16.18-5.91-1.23,3.46-1.99,7.06-2.37,10.71,3.85-2.42,8.74-4.4,13.24-2.65-1.13,3.01-1.9,6.12-2.42,9.28,4.28-1.44,9.62-3.1,13.6-.06-2.25,2.82-4.41,5.77-5.42,9.28,3.91-1.49,8.45-2.03,12.36-.28,1.2.49,2.01,1.53,2.62,2.63-6.98,2.82-9.52,10.4-13.33,16.22-2.45,4.03-6.39,7.05-10.92,8.36,1.33,1.06,2.75,2.06,3.82,3.4,2.09,2.44,3.25,5.61,5.79,7.66,1.93,1.8,4.77,1.47,7.19,1.96-1.19,4.46-4.84,7.73-8.6,10.13-6.19,3.89-14.03,3.52-20.77,1.4-1.5-.42-2.67-1.44-3.79-2.47-2.05,3.65-6.35,4.52-10.03,5.59-2.91,6.35-3.48,13.71-2.03,20.52,3.4-.82,6.79-1.8,10.32-1.81,6.15-.28,11.58,3.21,17.57,3.93,2.45.39,4.92.09,7.36-.17l14.28,24.18c-1.11,2.36-2.52,4.84-2.22,7.55.28,2.09,2.2,3.26,3.54,4.67h-45.82c-3,2.04-6.43,3.79-10.19,3.4-3.07-.03-5.66-1.73-8.15-3.3-3.07-.52-6.22-.01-9.32-.03-11.9,0-23.81,0-35.72,0,.79-1.44,2.24-2.87,1.82-4.66-.71-2.85-2.73-5.1-4.3-7.51,6.5-8.53,13.29-16.83,20.01-25.19,6.75.68,13.59.12,20.18-1.43,3.62-.82,7.38-.82,11.01-.13-1.05-6.87-.59-14.01,2.03-20.5-2.47-.84-5.01-1.59-7.25-2.94-1.52-.93-2.66-2.32-4.05-3.4-5.53,1.58-11.22,3.95-17.1,2.6-6.24-1.58-12.54-5.36-15.08-11.55,2.05-1.29,4.3-2.55,5.45-4.8,1.57-2.98,3.68-5.62,6.2-7.84-2.88-.96-5.66-2.41-7.65-4.76-3.78-4.35-4.63-10.36-8.04-14.96-1.26-2.01-3.34-3.25-5.25-4.57,2.05-5.11,8.29-5.77,12.93-4.31-.95-3.05-2.69-5.73-4.89-8.01-1.24-.93.37-1.86,1.26-2.12,4.59-1.42,9.66.2,13.02,3.5-.21-3.85-1.48-7.5-2.72-11.12,5.3-1.55,11.08.5,14.79,4.45.69-4.16,1.7-8.48.42-12.63,5.83-.34,11.98,1.88,15.4,6.81M160.6,83.55c-1.59,1.68-3,3.53-4.07,5.59-4.52,8.73-6.94,18.85-5.16,28.64.77,4.1,2.14,8.36,5.13,11.41,1.43,1.16,3.18,2.7,5.17,2.06,2.71-1.25,4.52-3.83,5.56-6.56,3.48-8.8,3.54-18.8.64-27.77-1.54-4.84-3.41-9.87-7.27-13.37M142.05,85.07c-.44,4.33-.9,8.66-1.72,12.94-1.01,6.33-2.55,13.02-.25,19.26,1.95,6.41,6.9,12.58,13.98,13.25-4.8-5.75-6.6-13.41-6.22-20.77.42-5.3,1.64-10.49,3.42-15.49-.85-4.48-4.78-8.19-9.2-9.18M169.69,93.22c2.28,7.05,3.88,14.54,2.9,21.97-.51,5.67-2.51,11.23-5.98,15.77.96.38,2.02,1,2.97.22,5.01-2.53,8.04-7.82,8.92-13.22,2.13-10.35-1.92-21.08,1.39-31.29-4.29.21-7.59,3.46-10.2,6.56M127.46,92.99c1.21,7.13.35,14.43,1.78,21.53.92,4.85,3.33,9.37,6.68,12.97,3.29,3.48,8.17,5.21,12.92,4.91-4.04-2.68-8.18-5.67-10.24-10.23-3.62-7.17-2.77-15.43-1.68-23.1-2.22-3.07-5.25-6.61-9.47-6.07M181.94,99.68c.43,8.53,1.19,17.62-2.87,25.49-1.41,3.07-4.04,5.23-6.39,7.55,4.87-.42,9.22-3.46,11.6-7.67,4.02-6.58,4.45-14.46,5.4-21.9.28-2.92,1.03-5.79.84-8.74-3.32.59-6.92,2.24-8.58,5.28M115.35,100.13c.95,2.18,2.35,4.15,3.07,6.43,1.83,6.1,3.19,12.46,6.22,18.11,3.31,5.68,9.51,9.87,16.24,9.61-2.54-1.8-5.26-3.4-7.35-5.75-5.68-5.98-7.88-14.43-7.88-22.5-1.76-3.82-6.12-6.27-10.3-5.9M192.4,104.91c-.99,4.84-1.42,9.82-2.76,14.59-1.69,5.55-5.01,10.47-9.53,14.12,5.09-.15,8.99-3.89,11.75-7.82,3.48-4.43,4.61-10.06,6.11-15.36.77-2.9,2.28-5.51,3.61-8.18-3.28-.39-6.53.75-9.18,2.65M107.31,111.04c1.1,1.35,2.33,2.57,3.34,3.99,3.23,4.84,4.17,11.01,8.25,15.31,2.99,3.18,7.55,4.18,11.77,3.9-2.43-1.87-4.94-3.69-6.79-6.17-3.43-4.24-4.3-9.77-6.06-14.78-2.38-3.08-7.04-3.87-10.51-2.25M200.62,115.07c-2.39,2.07-2.67,5.41-4.18,8.03-2.74,4.82-6.51,9.1-11.2,12.09,5.03.42,9.96-1.56,13.31-5.34,3.11-3.44,4.72-7.86,7.02-11.82,1.17-2.03,2.64-3.87,3.91-5.85-3.23-.68-6.49.75-8.87,2.88M156.59,134.48c-4.66.71-8.35,4.33-10.23,8.5-1.92,4.22,1.52,9.28,5.88,9.97,2.82.65,5.56-.51,8.17-1.44,1.6.3,2.98,1.55,4.68,1.67,4.37,1.02,9.82-2.2,9.84-6.97-.11-4.08-2.92-7.63-6.2-9.8-3.52-2.41-8.04-2.68-12.13-1.92M127.38,138.02c-5.36,1.96-6.1,8.64-10.71,11.47,6.15,2.06,12.97,1.5,19.11-.31,2.51-.97,5.63-1.81,6.8-4.51,1.34-2.72,2.64-5.48,4.5-7.9-6.55.09-13.35-.83-19.7,1.25M174.52,137.09c1.64,3.31,3.56,6.63,3.79,10.41.26,1.23-.05,2.9,1.22,3.66,7.1,3.67,16.24,5.56,23.56,1.47-1.5-1.41-3.33-2.46-4.69-4.03-2.4-2.81-4.1-6.21-6.87-8.69-1.3-1.22-3.13-1.64-4.86-1.72-4.07-.12-8.1-.66-12.15-1.09M141.33,154.79c2.47-.99,1.65-3.8,1.54-5.89-2.6.84-1.31,3.87-1.54,5.89M137.52,151.15v5.38s2.14-.75,2.14-.75c0-1.81-.03-3.62-.1-5.43l-2.03.8M134.12,151.68c-.07,2.05-.07,4.11-.01,6.16.66-.38,2.13-.34,1.89-1.49.07-1.59.01-3.18,0-4.76l-1.87.09M118.51,152.7c.64,1.1,1.66,1.89,2.69,2.62l.08-2.31-2.77-.31M130.21,152.49c-.14,1.91-.13,3.82.13,5.71l2.17-.53c-.01-1.82-.07-3.64-.3-5.44l-2.01.26M122.87,153.07l-.03,3.14,2.22.88v-4.03s-2.19,0-2.19,0M126.65,152.99v4.66l2.02.2v-4.99l-2.02.14M147.05,153.92l.09,2.14,1.74,1.69-.04-3.23-1.79-.61M172.03,154.51c-.01,1.51,0,3.01.04,4.52.63-.59,1.34-1.13,1.87-1.83.14-1.18.01-2.37-.05-3.55l-1.86.86M178.35,154.58c-.04.98-.22,2.08.2,3,.65.51,1.38.92,2.1,1.35l.13-3.91c-.79-.18-1.79-1.56-2.43-.44M150.93,155.04l-.11,4.13,2.03,1.25c.07-1.73.07-3.46.04-5.19l-1.96-.19M159.25,155.83c-.02,2.08-.13,4.15-.23,6.23l2.84.09v-6.6s-1.44-.76-1.44-.76l-1.17,1.04M163.78,155.76l-.08,6.23,2.62-.4c.03-2.1.09-4.21-.28-6.28l-2.26.44M168,155.13v5.98s2.36-.68,2.36-.68v-5.5s-2.36.2-2.36.2M154.76,155.59c0,1.84.01,3.69.09,5.52l2.52.59c.03-1.96.03-3.93.03-5.9l-2.63-.22M182.35,155.81c.03,1.23-.07,2.47.16,3.69l2.26.57-.02-3.56-2.41-.7M196.63,158.33c1.66.13,2.86-1.05,3.85-2.2-1.5.32-3.71.15-3.85,2.2M186.41,157.09l-.03,3.07,2.14.6c.05-1.21.07-2.41.05-3.61l-2.16-.05M190.23,157.46l.05,3.19,1.89-.35v-2.79s-1.94-.05-1.94-.05M193.87,157.31l-.09,2.69,1.62-.44-.15-2.46-1.38.21M159.06,164.55c-3,6.43-3.35,13.84-2.01,20.74.23,1.7,2.34,2.08,3.73,2.3-.65-3.64-1.36-7.31-1.17-11.03.03-4.08,1.32-7.98,2.45-11.86l-2.99-.15M161.09,189.42c.14,7.22-.88,14.4-.79,21.62,2.52-1.08,4.83-2.66,7.5-3.4,3.46-1.07,7.12-1.08,10.71-1.04,10.41.11,20.43,4.01,30.88,3.58-3.43-7.1-8-13.6-11.94-20.44-4.9.48-9.81-.42-14.38-2.18-7.05-2.9-15.55-2.35-21.97,1.85M142.15,187.36c-6.1,1.49-12.42,1.71-18.66,1.37l-13.56,17.01c-1.13,1.38-2.22,2.8-3.13,4.35,10.56.46,20.76-3.03,31.25-3.54,6.89-.77,14,.49,19.91,4.18l.97-21.24c-4.88-3.36-11.2-3.45-16.77-2.13M115.23,211.55c-3.18.34-6.38.2-9.57.32,1.52,1.34,3.6.96,5.46.96,8.35-.55,16.6-2.02,24.89-3.09,4.7-.47,9.54-.53,14.13.75,2.16.59,4.12,1.68,6.23,2.39-.22-.88-.82-1.53-1.64-1.88-3.81-2.11-8.25-2.8-12.56-2.82-9.11-.18-17.95,2.38-26.95,3.36M162.32,212.2c.29.61.66,1.17,1.11,1.68,4.39-3.03,9.73-4.64,15.07-4.43,10.24-.2,20.08,3.94,30.33,3.32l1.32-.77c-10.46.39-20.55-3.05-30.93-3.73-5.81-.3-12.05.46-16.9,3.93M115.79,213.77c-2.76.31-5.56.27-8.29.78,2.11.43,4.27.32,6.41.29,10.76-.71,21.4-4.07,32.25-2.67,3.03.24,5.85,1.5,8.76,2.26-1.84-2.15-4.79-2.7-7.42-3.24-10.65-1.6-21.15,1.72-31.7,2.59M170.16,211.97c-2.24.84-4.86,1.58-6.14,3.78,3.15-.81,5.93-2.7,9.18-3.23,9.86-2.31,19.67,1.31,29.48,2.03,2.1.28,4.23.12,6.27-.48-8.47.46-16.63-2.2-24.98-3.09-4.6-.11-9.36-.53-13.8.98M108.4,216.15c3.71,1.11,7.68,1,11.52.84,6.16-.19,12.07-2.22,18.22-2.49,5.13-.06,10.13,1.26,15,2.73l.71-1.52c-4.28-1.98-9.04-2.79-13.74-2.72-10.64.35-21.01,3.74-31.71,3.17M159.16,212.68c-2.14,2.65-4.83,5.46-4.9,9.07.38,2.12,2.86,2.77,4.74,2.58,1.97,0,5.05-.18,5.4-2.65-.5-3.5-2.69-6.63-5.24-9M172.75,213.98c-2.56.79-5.63,1.31-7.24,3.69,2.49-.75,4.9-1.76,7.46-2.25,7.36-1.58,14.93-.71,22.29.32,3.83.71,7.68,1.51,11.59,1.19.92.09,1.7-.39,2.25-1.07-12.21.87-24.21-4.82-36.37-1.89M125.31,217.77c-5.42.88-10.94.73-16.38.12l.82.78c7.84,1.43,15.8.07,23.61-.9,6.45-.8,12.89.44,19.15,1.92l-.3-1.33c-3.63-1.32-7.47-2.06-11.3-2.43-5.27-.41-10.43,1.04-15.59,1.85M171.18,217.16c-1.83.64-4.02.92-5.26,2.58,5.09-.75,10.07-2.49,15.29-2.21,8.14-.42,16.13,1.83,24.25,1.64,1.02-.07,2.21,0,2.98-.81-2.76-.11-5.54.05-8.26-.49-9.53-1.56-19.5-3.46-29.01-.71M131.99,219.21c-7.53,1.11-15.21,1.99-22.78.78v1.44s30.24,0,30.24,0c4.28.15,8.56-.57,12.83.07-1.54-1.19-3.52-1.35-5.34-1.74-4.91-1.02-9.98-.96-14.96-.55M170.36,220.21c-1,.2-1.92.65-2.8,1.16h41s.59-1,.59-1c-3.74,0-7.5.29-11.21-.27-9.11-1.32-18.53-2.07-27.58.11h0ZM252.21,82.3l5.21,6.21-1.68,1.15c-.56-.71-1.08-1.44-1.75-2.04-2.15,1.49-4.02,3.32-6.08,4.93l-1.46-1.66,6.11-5.12-1.84-2.24s1.49-1.21,1.49-1.21ZM250.15,95.39c2.66-1.97,5.33-3.95,8.1-5.76l4.26,6.06-1.7.82c-1.24-1.13-1.79-3.34-3.4-3.81-1.86,1.44,1.13,3.21,1.75,4.64l-1.58,1.17c-.89-1.3-1.81-2.58-2.76-3.84l-1.81,1.46,3.03,4-1.43,1.45-4.47-6.19ZM55.46,97.95c.46-.86,1.15-1.54,1.99-2.01l-.06,2.33c1.19,1.02,2.45,2.1,2.84,3.69l3.81-.49-.16,1.68c-2.55.53-5.17.52-7.76.65-.22-1.54,1.08-1.93,2.26-2.32-.64-.57-1.32-1.09-2.04-1.56-1.35,1.09-1.89,2.92-2.78,4.37,2.61,1.27,5.16,2.63,7.7,4.04l-.97,1.39c-1.43-.42-2.68-1.27-4.05-1.84l-.94,1.68c-.35-.38-.7-.77-1.04-1.17,1.65-1.44-.88-1.85-1.59-2.6-.39.77-.79,1.53-1.13,2.33,1.25,1.11,2.76,2.04,3.37,3.7l3.8-1-.07,1.78c-2.5.8-5.13,1.03-7.71,1.33-.2-1.55,1.23-2.01,2.3-2.63l-2.65-1.22-1.74,3.91-1.12-.93c2.08-5.28,4.8-10.29,7.75-15.13h0ZM256.37,104.4c-.92-4.66,6.45-8.13,9.26-4.18,1.52,1.86,1.1,4.51-.63,6.07l-1.04-1.81c.82-1.44.52-3.59-1.34-3.93-1.91.18-4.66,1.56-4.07,3.87.15,1.35,1.74,1.58,2.84,1.44l1.13,2.03c-2.65.93-5.77-.62-6.16-3.49h0ZM48.05,103.52l1.14-1.94,1.72,1.11-1.04,1.8-1.82-.97h0ZM260.78,109.93l8-3.89.92,1.89-3.25,1.75,1.57,3.12,3.24-1.56,1,1.94c-2.88,1.55-5.85,2.9-8.78,4.33l-1.12-1.84,3.96-1.99-1.58-3.27-4.01,1.99c-.19-.84-1.37-2.12.04-2.48h0ZM263.94,118.93l9.24-3.62.73,2.06c-1.26,2.12-3.07,3.86-4.47,5.89,1.96-.75,3.88-1.64,5.91-2.22l.87,1.77-9.37,3.62-.66-2.14c1.61-1.87,3.16-3.79,4.67-5.75-1.99.68-3.94,1.46-5.85,2.33l-1.05-1.94h0ZM43.29,123.59l1.17-1.19c.36.63.67,1.28.95,1.95,2.48.92,5.04,1.6,7.45,2.68l-.36,1.75c-2.79-.91-5.53-1.95-8.34-2.8l-1.46,5.57,1.56.53c.02-1.66.71-3.94,2.78-3.75,1.84-.07,4.91,2.49,2.84,4.1-1.14-.86-2.18-2.89-3.84-2.12-.69,2.94,3.07,2.61,4.82,3.47l-.26,1.72-2.15-.51c0,1.46-.35,3.31-2.07,3.62-2.39.83-4.57-1.75-3.55-4.02l1.23-.38c.26,1.06.12,2.96,1.78,2.79,1.27.07,1.09-1.58.8-2.36-1.4-.68-2.98-.88-4.49-1.23-.44,1.92-.92,3.84-1.45,5.74,2.79.66,5.6,1.26,8.41,1.79l-.27,1.84c-2.85-.51-5.67-1.16-8.52-1.69l-.45,2.3c1.72.29,3.48.51,5.17.99.57,1.75-3.19,4.34-3.03,1.27l-2.43-.36-.37,2.78,8.6.9-.37,1.71c-2.86-.02-5.69-.51-8.54-.77v2.48s8.41.42,8.41.42l.05,1.86-8.59-.44-.25,2.41c2.86.06,5.73-.03,8.58-.23l.09,1.91c-.49,0-1.47-.01-1.96-.02,1.04,1.83,2.09,4.24.73,6.19-.63.99-1.85.59-2.81.66-1.02.35-2.24,1.47-3.25.47-.43-1.04-.26-2.2-.35-3.28l-.84.11v5.27c2.94.02,5.85-.36,8.76-.68l-.07,1.95-8.35.79.14,1.99c2.88-.22,5.73-.86,8.62-.94,1.17,2.41-1.89,1.81-3.17,2.24,1.15,1.5,4.43,2.54,3.07,4.81-.9-.84-1.77-1.71-2.59-2.62-.27,2.44-2.74,2.71-4.63,3.22l-.44,1.53-1-.32c-.73-2.41-.63-4.99-1.41-7.38-.64.88-1.54,3.62-2.66,1.52.99-1.39,2.19-2.63,2.96-4.18-1.52.9-2.82,2.1-4.09,3.32l-.88-1.69,4.47-2.86c-.2-4.74-.42-9.5-.2-14.24-1.33,1.12-2.6,2.3-3.85,3.5l-.96-1.64c2.12-1.68,5.71-2.72,5.17-6.08-1.46.03-3.67.04-4.02-1.83-1.16-4.03,2.8-6.74,5.58-8.79.6-3.06,1.37-6.09,2.3-9.06-1.62-.04-4.12-.09-4.23-2.24-.07-3.22,3.27-4.76,6.08-4.46M38.44,127.82c1.08.58,2.29.73,3.5.74l.89-3.15c-1.94-.42-3.93.34-4.39,2.41M34.84,146.96c0,1.5,1.79,1.24,2.79,1.42.28-2.21.63-4.41.95-6.62-1.56,1.39-3.92,2.82-3.74,5.19M38.46,158.52l.41,2.06,1.99-.05c.31,1.25-.59,3.42,1.11,3.82.18-1.35-.59-3.27,1.19-3.79.24,1.01-.09,2.45,1.17,2.88,1.71-1.38.05-3.52-.94-4.78-1.62-.32-3.29-.13-4.94-.13M39.6,173.79c-.02.94.15,1.88.25,2.82,1.24-.25,2.57-.28,3.7-.91.1-.84-.31-1.62-.51-2.41-1.15.13-2.32.2-3.44.51ZM271.62,126.22c2.9-1.35,6.8.44,6.93,3.83.85,5.22-7.88,7.65-9.9,2.84-1.41-2.59.12-6,2.98-6.68M272.97,128.12c-1.5.27-3.29,1.52-2.8,3.27.78,3.7,7.73,1.52,6.23-2.01-.57-1.33-2.18-1.63-3.44-1.26h0ZM270.17,137.66c3.25-.6,6.49-1.3,9.74-1.94l.18,2.32c-2.59.35-5.15.84-7.65,1.58.33,1.5.81,3.01.82,4.56l-1.69.46-1.4-6.99h0Z"/>
    <path class="st1" d="M275.12,144.46c1.95-.51,4.42-.59,5.91,1,1.39,1.33,1.52,3.55.97,5.3-1.48,3.07-6.1,3.82-8.67,1.7-2.39-2.29-1.69-7.18,1.79-8M275.79,146.57c-1.85.36-2.63,2.74-1.33,4.12,1.89,1.5,5.46.79,6.04-1.75,0-2.47-2.82-3.1-4.72-2.37ZM275.11,155.28c2.28-1.02,5.44-.88,7.08,1.22,1.93,2.38,1.03,7.16-2.51,7.28-.34-1.89,1.54-3.03,1.65-4.79-.9-2.6-4.96-2.75-6.41-.65-.87,1.57.24,3.23,1.83,3.62l-.2-2.28h1.83l.21,4.16-5.58.21.77-2.07c-1.74-2-1.13-5.57,1.32-6.71h0ZM273.06,167.43c3.69,1.04,6.72-1.48,9.86-2.94l.04,2.56-4.11,1.72c1.29.7,2.59,1.38,3.91,2.03l-.13,2.41c-2.01-.94-3.81-2.27-5.8-3.23-1.27-.28-2.57-.32-3.86-.46l.09-2.1h0ZM271.78,183.73c-.36-2.26.23-4.53.7-6.74,3.21.62,6.46.96,9.65,1.65-.51,2.1-.37,4.44-1.41,6.37-1.05,1.56-3.02.88-4.2-.13-1.49,1.22-4.18.85-4.75-1.15M273.79,179.39c-.15,1.64-.88,4.26,1.67,4.04.31-1.21.59-2.42.86-3.63l-2.53-.41M277.91,180.12c-.09,1.5-.82,3.52,1.27,3.77.3-1.19.57-2.39.82-3.59l-2.1-.18h0ZM272.44,186.99c3.49-1.16,8.48,1.58,7.26,5.71-.69,4.79-7.96,4.73-9.84.85-1.12-2.38.03-5.69,2.58-6.56M272.36,189.39c-1.27.88-1.43,3.01-.05,3.87,1.57,1.15,4.57,1.58,5.44-.61,1.07-2.96-3.29-4.57-5.4-3.25h0ZM146.63,189.88c1.24-.43,3.71-.56,3.06,1.47-1.13-.3-3.29.4-3.06-1.47ZM164.45,190.97l3.69-1.36.69,1.35-3.42,1.34-.96-1.33ZM169.65,189.46l3.38.05-.15,1.57c-1.27-.2-2.95.03-3.23-1.62ZM174.75,189.56l3.66.69-.15,1.54-3.69-.77.19-1.47h0ZM141.33,192.09c-.35-2.07,2.07-1.82,3.42-2.06l.84,1.17c-1.4.39-2.82.69-4.25.9h0ZM150.93,191.35c.23-2.43,3.17-.11,4.47.22-1.07,1.91-3.05.39-4.47-.22ZM43.14,192.71l8.21-2.14c.54,1.54-.02,2.47-1.7,2.4.44,1.37,1.31,2.87.69,4.33-.38,1.1-1.46,1.68-2.32,2.35-.67-.64-1.14-2.47-2.34-1.76-2.05.73-.3,2.95.02,4.3,2.71-1.04,5.47-1.97,8.23-2.88l.33,1.75c-2.58,1.17-5.36,1.87-7.98,2.92l.89,2.18,7.91-3.19.72,1.74-5.26,2.14,1.58,3.6c1.93-.53,2.58-2.52,3.34-4.13l1.39.67c-.95,1.87-1.62,5.01-4.22,4.93-2.92.23-1.91-4.87-4.81-4.33.86,2.38,1.97,4.66,2.91,7.01,1.73-.85,3.71-1.76,5.16.07l1.5-3.85,1.64.68c-1.05,2.59-2.32,5.09-3.76,7.49l-1.4-.72c.25-.95.49-1.91.71-2.87-.99.24-1.96.54-2.91.9l2.36,4.55,7.59-4.3.59,1.77c-2.31,1.54-4.82,2.77-7.22,4.18l1.04,1.75,7.3-4.49.96,1.69-3.58,2.18c.62,1.64,2.23.75,3.35,1.36-.17,1.19.09,2.93-1.02,3.68-1.43-1.58-3.2-.18-3.81,1.35,1.03-.64,3.33.28,1.71,1.35-1.8,1.43-3.19-.86-3.53-2.4.89-1.15,1.99-2.11,3.23-2.87l-.98-1.72-2.44,1.31.26,2.21-1.25-.49c-3.81-5.73-6.72-11.99-9.52-18.27-.92.58-1.74,1.46-2.88,1.61-1.93-.05-2.85-2.32-2.65-3.98.15-1.87,1.72-3.08,3.06-4.17-1.06-3.33-2.16-6.67-2.86-10.09l.29-1.21,1.5,1.4M43.43,194.59l.42,2.16c1.6-.91,3.58-1.27,4.8.45,1.05-1.37-.03-2.67-.85-3.79l-4.37,1.18M44.77,204.29c-1.02,1.02-3.25,2.52-1.89,4.12.97,1.31,2.16-.42,3.12-.87l-1.23-3.25h0ZM137.01,192c.61-.97,1.93-.77,2.9-1.08l.2,1.69c-1.02-.15-2.53.57-3.1-.61h0ZM179.5,190.85l2.74.2.1,1.48-2.8-.25-.04-1.42h0ZM127.54,191.69h2.28l.05,1.5-2.44.02.11-1.52h0ZM132.12,191.64c1.2.29,3.42-.71,3.55,1.13-1.05.69-2.43.33-3.61.49l.06-1.62ZM184.21,191.47c1.21.15,2.43.36,3.62.68l-.53,1.23-3.23-.46.15-1.45ZM189.41,193.71c-.53-2.22,3.18-2.12,3.12-.04l-3.12.04ZM165.07,194.38c1.97-.89,4.11-1.36,6.27-1.38l-.16,1.39c-1.74.25-3.46.63-5.1,1.25l-1.01-1.25h0ZM173.28,192.89l3.42.49-.26,1.49-3.15-.4v-1.57ZM142.9,193.58c1.17.05,2.61-.64,3.6.17-.07,1.6-2.3,1-3.38,1.37l-.23-1.54h0ZM148.22,193.27c2.22.13,4.39.65,6.39,1.62l-1.09,1.11c-1.77-.45-3.5-1.01-5.31-1.25v-1.48ZM178.61,193.66l3.16.64-.22,1.5-3.52-.75.57-1.39h0ZM137.77,194.46c1.45-.14,3.35-1.09,4,.81-1.28.29-2.57.51-3.86.67l-.14-1.48ZM124.88,195.02l5.34.24.3,1.29c-1.97.24-3.94.1-5.91,0l.27-1.54h0ZM132.35,195c1.48.12,4.02-1.21,4.07,1.16l-4.04.4-.03-1.56h0ZM183.18,195.96l.51-1.45,3.64.44-.17,1.55-3.97-.55ZM189.77,195.25c1.52.04,3.03.31,4.55.47l.24,1.4c-1.86-.05-3.72-.2-5.55-.49l.76-1.39h0ZM171.24,196.36l4.24.02-.13,1.51c-1.32.01-2.64,0-3.95,0l-.15-1.52h0ZM268.33,196.03l9.42,3.28-1,2.87c-2.43-.21-4.86-.57-7.3-.57,2.08,1.21,4.13,2.48,6.15,3.79l-.95,2.88c-3.15-1.02-6.28-2.11-9.38-3.27l.69-1.91,6.28,2.18c-1.84-1.38-3.83-2.54-5.76-3.79l.81-1.99,6.91.93c-2.03-1.04-4.24-1.7-6.39-2.43l.54-1.99h0ZM138.68,197.49l3.56-.65c.67,1.99-1.68,1.83-2.92,2.24l-.65-1.59h0ZM143.49,196.93c1.56-.16,3.13-.21,4.7-.18l-.31,1.54c-1.58-.13-3.71.56-4.39-1.36h0ZM168.04,197.12c.88-.67,1.83.29,1.53,1.22-1.18.47-2.65,1.47-3.69.2.2-1,1.38-1.08,2.16-1.41h0ZM177.05,196.54l3.43.58-.13,1.58c-1.37-.39-3.99.11-3.3-2.16h0ZM133.61,198.41l3.65-.75.38,1.64-3.39.53-.64-1.42h0ZM149.5,198.66l.68-1.46,3.43,1.3c-.8,2.06-2.71.7-4.11.16h0ZM181.75,197.46c1.39.46,4.31-.15,3.66,2.23-1.49-.38-4,.07-3.66-2.23ZM127.78,198.86l4.11-.4.2,1.62c-1.5-.18-4.21,1.19-4.31-1.23h0ZM187.35,198.32l4.12.51c.22,2.53-2.77.98-4.19,1.1l.07-1.61ZM121.77,198.76l4.27.07c.24.53-.01,1.09-.05,1.64-1.46-.45-4.43.74-4.22-1.7ZM193.3,198.83c1.39.35,3.6-.63,4.4.84-1,1.53-3.18.7-4.7.73l.3-1.57ZM142.96,200.16c1.24-.23,2.51-.21,3.76-.07l-.29,1.67-2.88-.05-.59-1.56h0ZM172.57,199.71l3.21-.13.07,1.73-3.32.11.04-1.7ZM137.91,200.69l3.44-.55.45,1.64-3.48.67-.41-1.77ZM148.9,200.36l3.85,1.54-1.19,1.43-3.31-1.4.65-1.57h0ZM166.2,201.49c1.37-.6,2.79-1.12,4.24-1.5.94,2.06-1.45,2.22-2.71,2.94l-1.53-1.44h0ZM177.37,201.64l.63-1.81,3.11.63-.09,1.62-3.66-.44ZM132.04,201.64l4.17-.53.48,1.59-4.5.67-.15-1.73h0Z"/>
    <path class="st1" d="M182.74,200.91l4.36.67-.23,1.66-4.37-.62.24-1.71h0ZM126.03,202.25l4.43-.4.2,1.68-4.4.36-.22-1.64ZM188.79,201.73l4.01.48.07,1.64-4.47-.35.4-1.77ZM119.42,202.31h5.05s0,1.66,0,1.66l-5.05.13v-1.8ZM194.38,203.68c.59-2.06,3.02-.49,4.49-.67l.05,1.64c-1.48-.28-3.51.35-4.54-.97ZM262.47,213.53c-.45-2.58,1.29-4.81,2.22-7.07l8.91,3.99c-.85,1.97-1.47,4.13-2.85,5.81-1.39,1.37-3.35.32-4.2-1.1-1.54.5-3.53.09-4.08-1.63M265.49,209.13c-.75,1.48-1.92,3.69.34,4.41.67-1.09,1.3-2.21,1.9-3.34l-2.24-1.06M269.15,211c-.29,1.21-1.54,2.79-.22,3.8,1.22-.63,1.61-2.03,2.22-3.15l-2-.65h0ZM261.1,214.07c2.57,2.39,4.69,5.21,7.07,7.78l-1.23,2.2-10.4-1.79c.59-.77.94-2.15,2.22-1.82,1.69.28,1.96-1.87,2.78-2.88l-1.37-1.44.93-2.05M261.71,220.98l3.6.69-2.33-2.63-1.27,1.94ZM254.12,225.82l1.56-1.74c2.55,2.78,6.45,2.12,9.82,2.48l-1.34,2.2-4.41-.57c.75,1.25,1.54,2.5,2.34,3.73-.51.59-.77,1.5-1.57,1.77-1.23-1.85-1.95-3.98-3.32-5.73-.95-.83-2.05-1.46-3.09-2.16h0ZM61.6,264.38c27.74-12.83,58.07-19.92,88.6-21.03,36.27-1.33,72.74,6.09,105.76,21.1-1.33,3.27-2.88,6.44-4.36,9.65,6.23,2.53,12.08,5.89,17.74,9.5-5.85,10.79-11.35,21.78-17.53,32.4h-.32c-1.7-1.2-3.62-2.02-5.52-2.83-10-4.37-20.26-8.25-30.87-10.82-.84-.31-1.89-.34-2.53-1,.88-4.91,2.36-9.69,3.49-14.55-37.3-9.74-76.93-9.29-114.34-.4l3.7,15.08c-11.23,2.73-22.2,6.49-32.75,11.22-2.14.99-4.49,1.69-6.26,3.3h-.86l-.03-.44c-5.5-10.76-11.36-21.35-17.09-31.98,5.54-3.79,11.53-6.9,17.68-9.58l-4.51-9.61M69.25,267.02c2.85,6.87,6.31,13.48,9.49,20.2,26.66-8.89,54.81-13.57,82.94-13.08,26.35-.01,52.62,4.98,77.39,13.89l9.51-20.85c-14.83-6-30.09-11.12-45.85-14.06-44.88-8.82-91.38-3.98-133.48,13.89M65.83,280.21l12.17,24.22,2.11-.91c-3.56-8.31-7.41-16.49-11.37-24.61l-2.9,1.3M237.69,303.67l2.18.96,12.17-24.25-2.94-1.35-11.41,24.64M60.65,282.79c3.98,7.98,8.19,15.85,12.42,23.7l2.42-1.18-12.08-23.94-2.76,1.42M253.31,283.7c-3.64,7.31-7.51,14.53-10.92,21.96l2.53.92,12.38-23.55c-.9-.46-1.79-.95-2.71-1.34-.61.53-.9,1.32-1.28,2.01M55.96,285.61l12.26,23.02,2.19-1.18-12.14-23.26c-.79.42-1.66.76-2.31,1.41M247.9,307.24l1.5,1.31,12.16-22.87-1.75-1.18c-4.05,7.53-8.14,15.06-11.9,22.73M78.72,293.84c1.17,3.01,2.59,5.91,3.95,8.84l2.26-.96c-.92-2.39-1.91-4.76-2.91-7.12l-3.29-.75M235.85,294.65c-1.03,2.4-2.08,4.79-2.94,7.26l2.27.88c1.39-2.93,2.81-5.86,4.02-8.87l-3.35.73M85.32,295.31c.52,1.91,1.29,3.73,2.07,5.55l2.35-.64c-.36-1.47-.9-2.89-1.52-4.26l-2.9-.65M229.55,296.28c-.75,1.25-1.07,2.7-1.48,4.08l2.31.66c.79-1.84,1.56-3.69,2.25-5.57-1.02.28-2.18.24-3.09.82M91.54,296.69c.23.87.48,1.73.74,2.59,1.45-.39,2.9-.81,4.33-1.26-1.58-.82-3.37-.98-5.07-1.33M220.93,298.12l4.56,1.27.96-2.49c-1.88.22-3.72.65-5.52,1.22Z"/>
    <path class="st1" d="M192.78,252.54c2.89.55,3.19,3.77,3.83,6.1,7.97,1.37,15.83,3.31,23.63,5.44l.31,2.17-2.24-.67c-.94,2.81-1.68,5.68-2.38,8.56,1.23,1.63,2.05,3.54,2.32,5.57-1.08-1.43-1.68-3.27-3.32-4.19-1.02-.45-.87-1.71-.11-2.33l-.67-.98.72-2.49-2.78-.64-1.23,1.13c-1.13.15-1.42-1.36-1.86-2.13-.53-.85.68-1.35,1.02-2.01.29-.8.52-1.63.67-2.47l-3.46-.7c-.66,2.92-1.41,5.83-2.1,8.75-.98-.88-1.97-1.84-1.62-3.29-1.19-.14-2.54-.01-3.48-.88-1.29-1.01-1.17-2.84-1.57-4.27,1.15-.34,2.66-.27,3.22-1.56-1.67-.36-3.36-.68-5.05-.96l-1.38,8.99c-.91-.88-2.17-1.68-1.85-3.15-1.72.18-3.33-.32-4.49-1.62-1.13,2.36-4.93,1.73-6.04-.38-.96-1.1-.05-2.39.32-3.51-.36-1.08-1.38-2.31-.37-3.35,1.46-1.13,4.18-.22,4.12,1.82,0,.93-1.1,1.08-1.67,1.58,1.09,0,1.75.59,1.99,1.72-1.25.09-2.86-.65-3.67.7,1.06,1.98,3.42.86,4.93.15l-.44-2.03c1.16-.28,2.38-.53,3.2-1.5-1.12-.29-2.26-.5-3.39-.69l-.9-2.05,8.66,1.08c-.34-1.56-1.09-2.96-2.52-3.76l-.35-2.14M184.68,258.27c-.95.13-1.22,1.67-.14,1.85,1.38.34,1.64-2.23.14-1.85M192.24,260.02c.71,2.17-1.35,2.84-2.69,3.98,1.37.41,2.94.78,4.22-.12.39-1.16.55-2.37.78-3.56l-2.31-.3M202.95,261.8c.26,2.12-1.33,2.93-3.11,3.31.92.88,2.26,1.49,3.51.92,1.58-.4,1.29-2.45,1.9-3.62l-2.3-.61M212.24,267.19l3.27.53.69-2.72-3.41-.94c-.2,1.04-.38,2.08-.55,3.13ZM137.98,257.11c12.09-.95,24.25-1.06,36.37-.74l.93,2.03-2.29-.02c-.05,2.9-.19,5.79-.32,8.68,1.39,1.36,2.74,2.84,3.45,4.68-1.64-1.13-2.7-3.22-4.93-3.21l-.84-1.58,1.21-.05c-1.08-.92-.94-2.34-1.02-3.61h-2.54s-1.13,1.59-1.13,1.59c-.85-.82-2.02-1.52-2.3-2.74,1.04-1.11,1.06-2.6,1.08-4.03l-2.12-.05v8.99s-2.24-1.33-2.24-1.33l.1-2.57-2.78-.1-.98,1.83c-.94-.84-1.8-1.75-2.59-2.74,1.29-.94,1.1-2.51,1.14-3.91l-2.92.02c-.03,1.79.36,3.91-1.37,5.07-.32,1.23,3.46,2.8,1.14,3.86-1.69-2.01-4.2-3.81-4.41-6.62l2.39.22.13-2.36-3.58-.05c-.06,3.06.25,6.1.33,9.16-1.54-.54-2.47-1.6-2.41-3.25-1.46.4-3.11.56-4.33-.52-1.13-1.27-.86-3.1-1.13-4.64-1.25.06-1.58-1.09-2.05-1.98M142.22,258.86c.3,1.39-.15,3.21.75,4.35.84-.34,1.6-.85,2.38-1.31l-.04-3.42-3.09.38M158.29,258.03l.08,3.15,2.98-.1.05-2.96-3.11-.09M167.77,258.18l-.03,3.1,3.05-.04v-3l-3.02-.06ZM96.26,266.32c11.13-4.7,23.07-7.09,35.02-8.45l1.06,1.72-2.19.41,1.15,8.58c1.76.99,3.54,2.26,4.28,4.22-1.48-1.09-2.88-2.45-4.8-2.57-.93-.03-.96-1.13-1.08-1.81-.82-.87-.94-2.08-1.19-3.18l-2.63.38-.65,1.86c-1.15-.65-2.18-1.48-3.05-2.47,1.41-1,.77-2.61.59-4.01l-2.26.4c.49,2.98,1.08,5.95,1.61,8.93l-2.45-1.15-.66-3.71c-1.73.11-3.19.77-3.37,2.7-1.19-.55-3.56-1.81-2.3-3.29,1.72-.65,3.55-.92,5.34-1.32l-.46-1.84-7.52,1.75,2.38,8.76-2.53-.8-1.99-7.4-1.66.62,2.71,8.54-2.42-.63c-.56-1.54-1.06-3.09-1.56-4.64-.44.41-2.38.62-1.4,1.56,1.02.96.79,2.18.47,3.4.51.68,1.66,1.08,1.23,2.2-1.55-.8-3.2-1.35-4.9-1.75l-.32-1.83,2.46-.34c-.4-1.79-2.14-1.89-3.68-1.79.55-2.58,4.42-1.89,5.84-3.98-2.58.22-4.94,1.35-7.27,2.4l-1.83-1.49M124.88,260.79l.49,2.93,3.09-.52-.53-3.01-3.05.6h0Z"/>
  </g>
</svg>