<?xml version="1.0" encoding="UTF-8"?>
<svg id="Layer_1" xmlns="http://www.w3.org/2000/svg" version="1.1" viewBox="0 0 3000 3000">
  <!-- Generator: Adobe Illustrator 30.0.0, SVG Export Plug-In . SVG Version: 2.1.1 Build 123)  -->
  <defs>
    <style>
      .st0 {
        fill: #00274c;
      }

      .st1 {
        fill: #fff;
      }

      .st2 {
        fill: #f3c300;
      }
    </style>
  </defs>
  <rect class="st0" y="0" width="3000" height="3000"/>
  <path class="st2" d="M1496.81,1607.35l-467.68-644.12v467.68h187.07v461.3H351v-461.3h174.32v-718.52h-174.32V251.09h680.26l467.68,648.37,469.8-648.37h680.26v461.3h-174.32v718.52h174.32v461.3h-867.33v-461.3h187.07v-467.68l-471.93,644.12h0Z"/>
  <path class="st1" d="M2185.57,2740.41v-17.01c21.26-2.13,38.26-2.13,38.26-19.13,0-6.38-2.13-12.75-4.25-19.13l-8.5-31.89h-108.42l-8.5,27.64c-2.13,6.38-4.25,12.75-4.25,19.13,0,21.26,23.38,23.38,42.52,23.38v17.01h-127.55v-17.01c31.89-2.13,42.52-8.5,55.27-40.39l82.91-229.59-4.25-6.38c21.26-6.38,42.52-14.88,61.65-27.64,6.38,21.26,6.38,23.38,14.88,44.64l68.03,210.46c12.75,36.14,17.01,46.77,51.02,48.89v17.01h-148.82ZM2160.06,2491.69l-44.64,127.55h87.16l-42.52-127.55ZM1203.45,2670.26c-25.51,48.89-76.53,78.65-131.8,76.53-93.54,0-153.06-68.03-153.06-159.44,0-82.91,51.02-165.81,155.18-165.81,38.26,0,74.4,12.75,102.04,36.14l21.26-19.13,2.13,93.54-14.88,2.13c-6.38-21.26-19.13-40.39-34.01-55.27-17.01-19.13-40.39-29.76-63.77-29.76-55.27,0-99.91,44.64-99.91,125.42,0,68.03,36.14,131.8,108.42,131.8,38.26,0,72.28-19.13,91.41-53.15l17.01,17.01h-.02ZM1224.71,2740.41v-17.01c36.14-2.13,36.14-10.63,36.14-40.39v-161.56c0-21.26,0-40.39-2.13-48.89-2.13-19.13-10.63-21.26-34.01-23.38v-17.01h131.8v17.01c-25.51,2.13-36.14,4.25-38.26,21.26s-4.25,34.01-2.13,51.02v42.52c27.64,2.13,44.64,2.13,70.15,2.13s46.77,0,72.28-2.13v-51.02c0-57.4,0-59.52-42.52-61.65v-17.01h133.93v17.01c-24.09,2.83-36.14,24.09-36.14,63.77v129.67c0,12.75,0,51.02,2.13,59.52,2.13,17.01,10.63,19.13,34.01,21.26v17.01h-133.93v-17.01c31.89-4.25,38.26-4.25,42.52-25.51v-99.91c-25.51,0-44.64-2.13-70.15-2.13s-46.77,0-74.4,2.13v55.27c0,63.77,2.13,63.77,40.39,68.03v17.01h-129.68ZM1575.47,2740.41v-17.01c29.76-4.25,36.14-8.5,36.14-40.39v-163.69c0-63.77,0-65.9-36.14-70.15v-17.01h127.55v17.01c-24.09,2.83-36.14,26.22-36.14,70.15v125.42c0,10.63,0,44.64,2.13,55.27,2.13,19.13,10.63,23.38,34.01,25.51v17.01h-127.55v-2.13h0ZM784.67,2740.41v-17.01c29.76-4.25,36.14-8.5,36.14-40.39v-163.69c0-63.77,0-65.9-36.14-70.15v-17.01h127.55v17.01c-24.09,2.83-36.14,26.22-36.14,70.15v125.42c0,10.63,0,44.64,2.13,55.27,2.13,19.13,10.63,23.38,34.01,25.51v17.01h-127.55v-2.13h0ZM618.85,2740.41v-17.01c38.26-2.13,38.26-4.25,38.26-61.65v-155.18l-108.42,238.09h-27.64l-99.91-240.22-2.13,180.69c0,29.76,4.25,36.14,36.14,38.26v17.01h-104.16v-17.01c25.51-2.13,34.01-4.25,36.14-25.51,0-8.5,2.13-34.01,2.13-51.02l4.25-129.67v-36.14c0-29.76-6.38-31.89-34.01-34.01v-17.01h95.66l95.66,233.84,106.29-233.84h93.54v19.13c-36.14,2.13-38.26,6.38-36.14,55.27v127.55c0,21.26,0,46.77,2.13,63.77,2.13,23.38,10.63,27.64,34.01,29.76v17.01l-131.8-2.13v.02ZM2321.63,2740.41v-17.01c25.51-2.13,36.14-2.13,38.26-19.13,4.25-21.26,6.38-204.08,6.38-235.96-10.63-12.75-27.64-21.26-44.64-21.26v-17.01h93.54c25.51,36.14,31.89,44.64,76.53,102.04l85.03,106.29v-138.18c0-48.89-2.13-51.02-51.02-53.15v-17.01h123.3v17.01c-34.01,0-36.14,6.38-36.14,57.4l-4.25,238.09h-19.13l-27.64-34.01c-14.88-17.01-27.64-34.01-42.52-51.02l-121.17-150.93v159.44c0,48.89,4.25,51.02,51.02,55.27v17.01l-127.55,2.13h0ZM2017.63,2602.23v17.01c-27.64,2.13-27.64,8.5-27.64,68.03v23.38c-34.01,23.38-76.53,36.14-119.05,36.14-106.29,0-157.31-80.78-157.31-161.56,0-99.91,68.03-163.69,150.93-163.69,38.26,0,76.53,12.75,108.42,36.14l17.01-19.13,2.13,97.79-12.75,2.13c-8.5-23.38-21.26-44.64-38.26-61.65-17.01-14.88-38.26-23.38-61.65-23.38-53.15,0-97.79,44.64-97.79,133.93,0,70.15,36.14,131.8,95.66,131.8,21.26,0,40.39-8.5,53.15-25.51,6.38-8.5,8.5-19.13,6.38-29.76-2.13-38.26-6.38-40.39-40.39-42.52v-17.01l121.17-2.13h0ZM2483.19,2232.34c4.25,55.27-38.26,102.04-91.41,106.29h-10.63c-57.4,2.13-104.16-42.52-106.29-99.91v-8.5c0-57.4,46.77-104.16,104.16-104.16s102.04,46.77,104.16,106.29h.01ZM2381.15,2319.5c17.01-2.13,31.89-10.63,40.39-25.51,12.75-21.26,19.13-44.64,17.01-70.15,0-23.38-8.5-46.77-23.38-63.77-17.01-19.13-44.64-23.38-65.9-6.38l-6.38,6.38c-14.88,19.13-23.38,42.52-21.26,65.9-2.13,23.38,4.25,48.89,19.13,68.03,8.5,17.01,23.38,25.51,40.39,25.51h0ZM2491.69,2323.75v10.63h85.03v-10.63c-21.26-2.13-23.38-4.25-23.38-25.51v-57.4h23.38c23.38,0,34.01,2.13,36.14,25.51h10.63v-68.03h-10.63c-2.13,21.26-6.38,23.38-31.89,23.38h-27.64v-70.15h23.38c40.39,0,53.15,0,57.4,31.89h10.63l-4.25-48.89h-148.81v8.5c14.88,2.13,21.26,2.13,23.38,12.75,2.13,12.75,2.13,25.51,2.13,36.14v106.29c-2.13,21.26-4.25,23.38-25.51,25.51h.01ZM822.93,2332.25v-10.63c19.13-2.13,23.38-4.25,23.38-25.51v-108.42c0-28.35-7.79-43.94-23.38-46.77v-10.63h85.03v10.63c-17.01,2.83-25.51,18.42-25.51,46.77v119.05c2.13,12.75,6.38,14.88,23.38,17.01v10.63h-82.91v-2.13h.01ZM1669,2332.25v-10.63c19.13-2.13,23.38-4.25,23.38-25.51v-108.42c0-28.35-7.79-43.94-23.38-46.77v-10.63h85.03v10.63c-15.59,1.42-23.38,17.01-23.38,46.77v119.05c2.13,12.75,6.38,14.88,23.38,17.01v10.63h-85.03v-2.13ZM586.96,2332.25v-10.63c17.01,0,23.38-2.13,25.51-12.75s4.25-133.93,4.25-155.18c-6.38-8.5-17.01-12.75-29.76-12.75v-10.63h59.52c17.01,23.38,21.26,29.76,51.02,68.03l57.4,70.15v-91.41c0-31.89,0-34.01-34.01-36.14v-10.63h80.78v10.63c-21.26,0-23.38,4.25-25.51,38.26v155.18h-12.75l-19.13-21.26c-8.5-10.63-19.13-23.38-27.64-34.01l-80.78-99.91v106.29c0,34.01,2.13,34.01,34.01,38.26v10.63l-82.91-2.13h0ZM1511.69,2268.48l10.63-2.13c10.63,34.01,29.76,51.02,59.52,51.02,21.26,0,40.39-8.5,40.39-31.89s-21.26-31.89-31.89-36.14-17.01-6.38-25.51-8.5c-27.64-6.38-46.77-29.76-48.89-59.52,0-34.01,27.64-59.52,59.52-59.52h6.38c17.01,0,31.89,4.25,46.77,14.88l12.75-8.5,6.38,59.52-10.63,2.13c-2.13-10.63-6.38-21.26-14.88-29.76-8.5-12.75-23.38-19.13-38.26-19.13-21.26,0-34.01,10.63-34.01,27.64,0,23.38,23.38,31.89,46.77,40.39,10.63,2.13,19.13,6.38,29.76,12.75,19.13,10.63,29.76,29.76,29.76,51.02-2.13,36.14-31.89,65.9-70.15,63.77h-2.13c-19.13,0-36.14-6.38-53.15-17.01l-17.01-12.75-2.13-38.26h.01ZM1826.31,2332.25v-8.5c19.13,0,23.38-6.38,23.38-23.38v-150.93h-25.51c-23.38,0-38.26,0-40.39,36.14h-10.63l2.13-57.4h184.95l2.13,57.4h-10.63c-2.13-36.14-17.01-36.14-40.39-36.14h-25.51v150.93c0,17.01,4.25,23.38,23.38,23.38v8.5h-82.91,0ZM440.28,2128.18v10.63c-25.51,2.13-25.51,4.25-27.64,46.77v48.89c-2.13,23.38,2.13,44.64,12.75,65.9,8.5,10.63,23.38,17.01,38.26,17.01,25.51,2.13,46.77-14.88,53.15-38.26,4.25-25.51,6.38-53.15,6.38-78.65v-38.26c-2.13-19.13-10.63-19.13-29.76-21.26v-10.63h76.53v10.63c-19.13,0-23.38,4.25-23.38,23.38,0,4.25-2.13,61.65-2.13,70.15,0,14.88-2.13,29.76-4.25,46.77-10.63,36.14-42.52,59.52-80.78,57.4-19.13,0-38.26-4.25-53.15-14.88-29.76-21.26-29.76-51.02-29.76-85.03v-82.91c-2.13-12.75-8.5-14.88-23.38-17.01v-10.63h87.16ZM1131.17,2128.18v10.63c-19.13,2.13-23.38,8.5-38.26,48.89l-61.65,148.81h-10.63l-57.4-150.93c-14.88-38.26-14.88-42.52-36.14-46.77v-10.63h95.66v10.63c-17.01,0-27.64,2.13-27.64,12.75,0,8.5,4.25,19.13,6.38,27.64l36.14,104.16,42.52-106.29c2.13-6.38,4.25-14.88,6.38-21.26,0-14.88-14.88-14.88-27.64-14.88v-10.63l72.28-2.13h0ZM2034.64,2332.25v-10.63c14.88-2.13,21.26-2.13,25.51-6.38s4.25-10.63,4.25-31.89v-36.14l-55.27-85.03c-14.88-21.26-14.88-23.38-34.01-23.38v-10.63h106.29v10.63c-21.26,0-31.89,2.13-31.89,10.63,2.13,8.5,4.25,14.88,8.5,21.26l31.89,51.02,29.76-51.02c4.25-6.38,6.38-12.75,8.5-21.26,0-10.63-8.5-10.63-23.38-10.63v-10.63h80.78v10.63c-21.26,0-27.64,6.38-48.89,44.64l-31.89,53.15v42.52c0,36.14,0,40.39,29.76,42.52v10.63h-99.91ZM1294.86,2332.25c0-14.88,2.13-38.26,4.25-53.15h-10.63c-6.38,36.14-27.64,34.01-57.4,34.01s-31.89-6.38-31.89-21.26v-57.4h21.26c25.51,0,31.89,2.13,31.89,25.51h10.63v-68.03h-10.63c-2.13,17.01-6.38,23.38-31.89,23.38h-21.26v-72.28h25.51c34.01,0,46.77,2.13,51.02,29.76h10.63l-2.13-48.89h-146.68v10.63c14.88,2.13,21.26,2.13,23.38,12.75,2.13,12.75,2.13,25.51,2.13,36.14v108.42c0,21.26-4.25,23.38-23.38,25.51v10.63l155.18,4.25v.02ZM1379.89,2223.84c6.38,2.13,12.75,2.13,19.13,2.13,21.26,2.13,38.26-12.75,42.52-34.01,2.13-23.38-10.63-44.64-48.89-44.64h-12.75v76.53h-.01ZM1379.89,2268.48c0,46.77,0,53.15,25.51,53.15v10.63h-85.03v-10.63c21.26-2.13,23.38-4.25,25.51-27.64v-99.91c0-12.75,0-25.51-2.13-40.39-2.13-10.63-6.38-12.75-23.38-14.88v-10.63h91.41c51.02,0,65.9,23.38,65.9,51.02,0,25.51-17.01,46.77-40.39,53.15l36.14,63.77c12.75,23.38,19.13,29.76,36.14,31.89v6.38h-12.75c-38.26,0-55.27-12.75-70.15-46.77l-12.75-23.38c-12.75-25.51-17.01-23.38-36.14-25.51l2.13,29.76h-.02Z"/>
</svg>