<?xml version="1.0" encoding="UTF-8"?>
<svg xmlns="http://www.w3.org/2000/svg" version="1.1" viewBox="0 0 100 56">
  <defs>
    <style>
      .cls-1 {
        fill: none;
        stroke: #000;
        stroke-miterlimit: 3.9;
        stroke-width: 1px;
      }
    </style>
  </defs>
  <!-- Generator: Adobe Illustrator 28.6.0, SVG Export Plug-In . SVG Version: 1.2.0 Build 709)  -->
  <g>
    <g id="Layer_1">
      <path class="cls-1" d="M52,33v23.1"/>
      <path class="cls-1" d="M52,.2v22.8"/>
      <g>
        <path d="M18.1,23v-3.7c0-7.9.3-10.7,4-10.7v-.6h-11.1v.4c3.7,0,4,2.9,4,10.8v3.8h3.1Z"/>
        <path d="M15,37.1c0,8-.3,10.8-4,10.8v1h11v-1.2c-3.7,0-4-2.8-4-10.7v-4h-3v4.1Z"/>
        <path d="M42,19.1c0-7.9.3-10.7,4-10.7v-.4h-12v.4c3.7,0,4,2.8,4,10.7v3.9h4v-3.9Z"/>
        <path d="M42,36.9v-3.9h-4v3.9c0,7.9-.3,10.7-4,10.7v.4h12v-.4c-3.7,0-4-2.8-4-10.7Z"/>
        <path d="M66,36.9v-3.9h-3v3.9c0,7.9-.3,10.7-4,10.7v.4h11v-.4c-3.7,0-4-2.8-4-10.7Z"/>
        <path d="M90.9,19.7c0-7.1-5.2-12.5-14.4-12.5s-8.1.8-12.9.8h-4.6v.4c3.7,0,4,2.8,4,10.7v3.9h3v-13.8c2.5-.8,4.4-1.2,7.4-1.2,7.5,0,12.2,4.8,12.2,12.1s-.1,1.9-.3,2.9h5.2c.3-1.1.5-2.2.5-3.3Z"/>
      </g>
      <g>
        <path d="M15.6,29.3h-3.1l-.7,1.5h-.6l2.5-5.6h.6l2.5,5.6h-.6l-.6-1.5ZM15.4,28.8l-1.3-3-1.3,3h2.6Z"/>
        <path d="M24.1,30.8l-1.3-1.8h-1.9v1.8h-.6v-5.6h2.1c.7,0,1.3.2,1.7.5.4.3.6.8.6,1.4s-.1.8-.3,1.1c-.2.3-.5.5-.9.6l1.4,1.9h-.8ZM22.4,28.5c.6,0,1-.1,1.3-.4.3-.2.4-.6.4-1s-.1-.8-.4-1-.7-.4-1.3-.4h-1.5v2.8h1.5Z"/>
        <path d="M44.4,28.2l-1.1,1.2v1.5h-.6v-5.6h.6v3.4l3.3-3.4h.7l-2.4,2.5,2.6,3h-.7l-2.4-2.6Z"/>
        <path d="M28.6,25.2h2.2c.6,0,1.1.1,1.6.4.5.2.8.6,1.1,1,.2.4.4.9.4,1.4s0,1-.4,1.5c-.2.4-.6.7-1.1,1-.4.2-1,.4-1.6.4h-2.2v-5.7ZM30.8,30.3c.5,0,.9-.1,1.3-.3.4-.2.7-.5.9-.8s.3-.7.3-1.2,0-.8-.3-1.2c-.2-.3-.5-.6-.9-.8-.4-.2-.8-.3-1.3-.3h-1.6v4.6s1.6,0,1.6,0Z"/>
        <path d="M37.7,25.2h.6v5.6h-.6v-5.6Z"/>
        <path d="M66.8,25.2c.7,0,1.3.2,1.7.5.4.3.6.8.6,1.4s-.2,1.1-.6,1.4-1,.5-1.7.5h-1.5v1.8h-.6v-5.6s2.1,0,2.1,0ZM66.8,28.5c.6,0,1-.1,1.3-.4.3-.2.4-.6.4-1s0-.8-.4-1-.7-.4-1.3-.4h-1.5v2.8h1.5Z"/>
        <path d="M76.4,29.3h-3.1l-.7,1.5h-.6l2.5-5.6h.6l2.5,5.6h-.6l-.6-1.5ZM76.2,28.8l-1.3-3-1.3,3h2.6Z"/>
        <path d="M7.7,25.2v5.6h-.5v-2.6h-3.5v2.6h-.6v-5.6h.6v2.5h3.5v-2.5h.5Z"/>
        <path d="M82.3,25.7h-2v-.5h4.5v.5h-2v5.1h-.6v-5.1h0Z"/>
        <path d="M88.3,25.2h.6v5.6h-.6v-5.6Z"/>
        <path d="M93.2,25.2h.6v5.1h3.1v.5h-3.7v-5.6Z"/>
      </g>
    </g>
  </g>
</svg>