<?xml version="1.0" encoding="UTF-8"?>
<svg id="close" xmlns="http://www.w3.org/2000/svg" version="1.1" viewBox="0 0 32 32">
  <!-- Generator: Adobe Illustrator 29.7.1, SVG Export Plug-In . SVG Version: 2.1.1 Build 8)  -->
  <path d="M.65,31.35c.86.86,2.26.86,3.13,0l12.24-12.24,12.24,12.24c.88.85,2.28.82,3.13-.05.83-.86.83-2.22,0-3.07l-12.24-12.24L31.38,3.75c.85-.88.82-2.28-.05-3.13-.86-.83-2.22-.83-3.07,0l-12.24,12.24L3.77.62C2.9-.23,1.5-.2.65.68-.18,1.53-.18,2.89.65,3.75l12.24,12.24L.65,28.23c-.86.86-.86,2.26,0,3.13Z"/>
</svg>