<?xml version="1.0" encoding="UTF-8"?>
<svg id="Layer_1" xmlns="http://www.w3.org/2000/svg" version="1.1" viewBox="0 0 100 56">
  <!-- Generator: Adobe Illustrator 29.7.1, SVG Export Plug-In . SVG Version: 2.1.1 Build 8)  -->
  <defs>
    <style>
      .st0 {
        fill: none;
        stroke: #000;
        stroke-miterlimit: 3.9;
      }
    </style>
  </defs>
  <g id="Layer_11" data-name="Layer_1">
    <path class="st0" d="M52,33v23.1"/>
    <path class="st0" d="M52,.2v22.8"/>
    <g>
      <path d="M3.03,30.8v-5.6h.59v5.6h-.59ZM3.56,28.22v-.52h3.63v.52h-3.63ZM7.13,30.8v-5.6h.58v5.6h-.58Z"/>
      <path d="M11.2,30.8l2.56-5.6h.58l2.56,5.6h-.62l-2.35-5.26h.24l-2.35,5.26h-.62ZM12.21,29.3l.18-.48h3.26l.18.48h-3.61Z"/>
      <path d="M20.4,30.8v-5.6h2.1c.71,0,1.27.17,1.68.51s.61.81.61,1.41c0,.4-.09.74-.28,1.02s-.45.5-.79.66c-.34.15-.75.23-1.23.23h-1.77l.26-.27v2.05h-.59ZM20.99,28.8l-.26-.28h1.75c.56,0,.99-.12,1.28-.37.29-.25.44-.59.44-1.03s-.15-.79-.44-1.04c-.29-.25-.72-.37-1.28-.37h-1.75l.26-.28v3.37ZM24.23,30.8l-1.44-2.03h.64l1.45,2.03h-.65Z"/>
      <path d="M28.75,30.8v-5.6h2.28c.6,0,1.12.12,1.57.36.45.24.8.57,1.05.99.25.42.38.91.38,1.46s-.12,1.04-.38,1.46-.6.75-1.05.99-.98.36-1.57.36h-2.28ZM29.34,30.29h1.66c.5,0,.93-.1,1.29-.29.37-.19.65-.46.85-.81.2-.34.3-.74.3-1.19s-.1-.85-.3-1.19c-.2-.34-.49-.61-.85-.8-.37-.19-.8-.29-1.29-.29h-1.66v4.58Z"/>
      <path d="M37.92,30.8v-5.6h.59v5.6h-.59Z"/>
      <path d="M42.9,30.8v-5.6h.59v5.6h-.59ZM43.42,29.41l-.02-.72,3.39-3.49h.68l-2.47,2.59-.34.36-1.24,1.26ZM46.93,30.8l-2.42-2.79.4-.43,2.72,3.22h-.7Z"/>
      <path d="M65.13,30.8v-5.6h2.1c.48,0,.88.08,1.22.23.34.15.6.37.79.66.18.29.28.63.28,1.04s-.09.74-.28,1.02c-.18.29-.45.51-.79.66-.34.15-.75.23-1.22.23h-1.77l.26-.28v2.05h-.59ZM65.73,28.8l-.26-.29h1.75c.56,0,.99-.12,1.28-.36.29-.24.44-.59.44-1.03s-.15-.79-.44-1.04c-.29-.25-.72-.37-1.28-.37h-1.75l.26-.28v3.37Z"/>
      <path d="M72.19,30.8l2.56-5.6h.58l2.56,5.6h-.62l-2.35-5.26h.24l-2.35,5.26h-.62ZM73.19,29.3l.18-.48h3.26l.18.48h-3.61Z"/>
      <path d="M82.19,30.8v-5.09h-1.97v-.51h4.53v.51h-1.97v5.09h-.59Z"/>
      <path d="M88.26,30.8v-5.6h.59v5.6h-.59Z"/>
      <path d="M93.24,30.8v-5.6h.59v5.09h3.14v.51h-3.73Z"/>
    </g>
  </g>
  <g>
    <path d="M18.21,19.37c0-8.06.24-10.96,3.72-10.96v-.41h-10.93v.41c3.48,0,3.72,2.9,3.72,10.96v3.63h3.48v-3.63Z"/>
    <path d="M18.21,37.53v-4.53h-3.48v4.53c0,8.06-.24,10.96-3.72,10.96v.41h10.93v-.41c-3.48,0-3.72-2.9-3.72-10.96Z"/>
    <path d="M41.93,37.53v-4.53h-3.48v4.53c0,8.06-.24,10.96-3.72,10.96v.41h10.93v-.41c-3.48,0-3.72-2.9-3.72-10.96Z"/>
    <path d="M45.66,8.41v-.41h-10.93v.41c3.48,0,3.72,2.9,3.72,10.96v3.63h3.48v-3.63c0-8.06.24-10.96,3.72-10.96Z"/>
    <path d="M62.65,37.75c0,7.9-.24,10.74-3.65,10.74v.4h10.68v-.4c-3.41,0-3.65-2.85-3.65-10.74v-4.75h-3.37v4.75Z"/>
    <path d="M66.03,9.84c2.42-.88,4.33-1.28,7.26-1.28,7.38,0,12.03,4.73,12.03,11.99,0,.77-.09,1.6-.25,2.45h3.42c.16-.82.24-1.65.24-2.49,0-7.14-4.72-12.51-13.18-12.51-4.6,0-7.42.8-11.79.8h-4.76v.4c3.41,0,3.65,2.85,3.65,10.75v3.05h3.37v-13.16Z"/>
  </g>
</svg>